<svg width="178" height="52" viewBox="0 0 178 52" fill="none" xmlns="http://www.w3.org/2000/svg">
<path d="M26.1119 0.940125C12.1969 0.940125 0.902344 12.1677 0.902344 26C0.902344 39.8323 12.1969 51.0599 26.1119 51.0599C40.0268 51.0599 51.3214 39.8323 51.3214 26C51.3214 12.1677 40.0569 0.940125 26.1119 0.940125ZM38.4907 15.6407C38.9726 16.1198 38.9726 16.8683 38.4907 17.3473C38.2799 17.5569 38.0088 17.6766 37.7377 17.6766C37.8281 16.8982 37.5871 16.0898 37.0149 15.4311C37.4667 15.1916 38.0691 15.2515 38.4907 15.6407ZM34.8463 13.7246C35.3282 13.2455 36.1414 13.2455 36.6233 13.7246C37.045 14.1437 37.1052 14.7725 36.8041 15.2515C36.1414 14.6527 35.2981 14.3832 34.4849 14.4731C34.515 14.2036 34.6355 13.9341 34.8463 13.7246ZM32.3465 16.8084L33.5512 15.6108C34.2439 14.9222 35.5089 15.0419 36.3222 15.8503C37.1655 16.6886 37.286 17.9162 36.5631 18.6048L35.3583 19.8024C34.6656 20.491 33.4006 20.4012 32.5874 19.5629C31.7742 18.7246 31.6537 17.497 32.3465 16.8084ZM21.7145 3.42515C22.8891 2.70659 24.4553 3.06587 25.1782 4.26348L31.2321 14.0539C31.9549 15.2216 31.5935 16.7485 30.4791 17.6168C29.6056 18.2755 29.0334 18.1557 28.4611 17.3772L20.9013 6.86827C20.1784 5.67066 20.5399 4.14372 21.7145 3.42515ZM16.775 12.4671C17.3774 11.5389 18.6122 11.2395 19.5761 11.8383L28.0395 17.976C28.672 18.4251 28.7021 18.9042 28.1599 19.5928C27.4371 20.491 26.2022 20.7605 25.2685 20.1617L17.4075 15.2216C16.4738 14.6527 16.1726 13.4252 16.775 12.4671ZM16.8654 36.7784C16.4136 37.2275 15.6907 37.2575 15.2389 36.8084C14.7872 36.3593 14.8173 35.6407 15.2691 35.1916L28.4912 20.4012C28.5214 20.3713 28.5214 20.3713 28.5515 20.3413C29.6056 19.2934 31.2019 19.1737 32.1055 20.0719C33.0091 20.9701 32.8886 22.5569 31.8344 23.6048C31.8043 23.6347 31.8043 23.6347 31.7742 23.6647L16.8654 36.7784ZM39.7557 35.3114C38.822 35.9102 37.557 35.6108 36.9547 34.6826L31.985 26.8683C31.3827 25.9401 31.6537 24.6826 32.5573 23.994C33.25 23.4551 33.7319 23.485 34.1837 24.1138L40.3581 32.5269C40.9906 33.4551 40.6894 34.7126 39.7557 35.3114ZM45.3879 31.2096L34.8162 23.6946C34.0331 23.1258 33.9428 22.5269 34.5753 21.6886C35.4487 20.5808 36.9848 20.2216 38.1594 20.9401L48.0083 26.9581C49.1829 27.6766 49.5745 29.2335 48.8516 30.4012C48.1288 31.5689 46.5626 31.9281 45.3879 31.2096Z" fill="#AFCA0B"/>
<path d="M142.582 31.0898V31.2994C142.582 33.8443 140.473 35.9401 137.913 35.9701C135.323 35.9401 133.245 33.8443 133.245 31.2994V31.1796L133.215 31.0299V20.2216H129.992V31.2695C129.992 35.4611 133.305 38.9042 137.552 39.1437H137.612V39.1737H137.732H137.853C137.883 39.1737 137.883 39.1737 137.883 39.1737H138.154H138.214C142.461 38.9641 145.774 35.491 145.774 31.2994V20.2216H142.582V31.0898Z" fill="#404041"/>
<path d="M121.92 29.8324V29.7126H121.89V14.0839H118.607V29.6527C118.607 34.7425 122.793 38.9342 127.914 39.0539H128.034V35.7006H127.914C124.631 35.6108 122.01 33.036 121.92 29.8324Z" fill="#404041"/>
<path d="M152.009 29.8324V29.7126H151.979V14.0839H148.696V29.6527C148.696 34.7425 152.882 38.9342 158.002 39.0539H158.123V35.7006H158.002C154.75 35.6108 152.099 33.036 152.009 29.8324Z" fill="#404041"/>
<path d="M174.387 22.527C172.61 20.7605 170.261 19.7725 167.731 19.7725C162.581 19.7725 158.364 23.9341 158.364 29.0838C158.364 34.2036 162.55 38.3653 167.731 38.3653H171.164L173.333 35.1018H167.761C164.418 35.1018 161.707 32.4072 161.707 29.0838C161.707 25.7605 164.418 23.0659 167.761 23.0659C171.104 23.0659 173.815 25.7605 173.815 29.0838V38.9042H177.098V29.0838C177.098 26.6288 176.164 24.2934 174.387 22.527Z" fill="#404041"/>
<path d="M67.8266 35.7006C64.5737 35.6108 61.9232 33.036 61.863 29.8324V29.7126H61.8329V14.0839H58.5499V29.6527C58.5499 34.7425 62.7365 38.9342 67.8567 39.0539H67.9771V35.7006H67.8266Z" fill="#404041"/>
<path d="M73.9105 21H70.6276V38.9042H73.9105V21Z" fill="#404041"/>
<path d="M73.9105 14.1138H70.6276V17.3772H73.9105V14.1138Z" fill="#404041"/>
<path d="M110.415 14.1138H106.198L102.584 17.9761H106.8L110.415 14.1138Z" fill="#404041"/>
<path d="M113.125 32.527L113.095 32.5869C112.613 33.4252 111.951 34.1438 111.168 34.6827C110.113 35.3713 108.879 35.7605 107.614 35.7605C104.15 35.7605 101.349 32.9761 101.349 29.5629C101.349 26.1198 104.15 23.3354 107.614 23.3354C109.421 23.3354 111.107 24.1138 112.312 25.4312L112.342 25.4611L107.704 31.539H111.74L113.758 28.7845L113.788 28.8144L116.258 25.4012L116.288 25.3414L116.258 25.2815C114.631 22.048 111.228 19.9521 107.614 19.9521C102.313 19.9521 97.9755 24.2336 97.9755 29.533C97.9755 34.8024 102.282 39.1138 107.614 39.1138C109.541 39.1138 111.439 38.545 113.065 37.4372C114.752 36.2695 115.956 34.7725 116.559 33.0959C116.559 33.0959 116.649 32.8863 116.709 32.6767L116.77 32.527H113.125Z" fill="#404041"/>
<path d="M87.2231 20.4611H84.3618L82.1932 23.7246H87.2231C90.5663 23.7246 93.277 26.4192 93.277 29.7425C93.277 33.0659 90.5663 35.7605 87.2231 35.7605C83.8799 35.7605 81.1692 33.0659 81.1692 29.7425V14.0839H77.8561V29.7425C77.8561 32.2276 78.7898 34.533 80.5668 36.2994C82.3438 38.0659 84.6931 39.0539 87.2231 39.0539C92.3734 39.0539 96.59 34.8922 96.59 29.7425C96.5599 24.6228 92.3734 20.4611 87.2231 20.4611Z" fill="#404041"/>
</svg>
