<svg width="709" height="331" viewBox="0 0 709 331" fill="none" xmlns="http://www.w3.org/2000/svg">
<path d="M330.5 224.753C161.7 215.953 39.8333 242.42 0 256.753V330.753H709C653.167 299.086 499.3 233.553 330.5 224.753Z" fill="#76C138"/>
<path d="M389.482 251.749C389.482 251.749 389.482 248.635 389.925 247.598C390.368 246.562 392 242.346 392 242.346H398.368C398.368 242.346 399.554 246.193 399.627 247.451C399.701 248.708 399.627 251.749 399.627 251.749H389.482Z" fill="#233862"/>
<path d="M429.928 251.749C429.928 251.749 429.928 248.635 429.485 247.598C429.042 246.562 427.41 242.346 427.41 242.346H421.042C421.042 242.346 419.857 246.193 419.783 247.451C419.709 248.708 419.783 251.749 419.783 251.749H429.932H429.928Z" fill="#233862"/>
<path d="M404.407 76.8747C404.407 76.8747 404.181 83.8144 403.291 86.9198L396.259 91.8209L422.739 95.7809L416.423 87.063C416.423 87.063 414.517 77.7595 415.515 74.3201C416.514 70.8806 404.407 76.8747 404.407 76.8747Z" fill="#FFB27D"/>
<path d="M404.367 77.8335C404.367 77.8335 406.46 82.8691 410.406 82.7606C414.351 82.6479 415.246 78.1935 415.246 78.1935L404.367 77.8335Z" fill="#ED985F"/>
<path d="M402.015 73.7564C402.015 73.7564 400.743 67.4023 399.853 65.4809C398.963 63.5551 398.225 54.9717 408.075 54.5293C408.075 54.5293 411.851 54.9717 413.926 53.7139C413.926 53.7139 413.926 54.9717 413.41 55.4141C413.41 55.4141 416.817 54.5987 419.483 57.561C422.148 60.5234 417.707 70.8808 417.929 73.3226L402.019 73.7564H402.015Z" fill="#B64C41"/>
<path d="M415.407 61.7769H404.502C403.035 61.7769 401.837 63.1821 401.837 64.904V72.2513C401.837 76.9616 407.098 80.7611 409.955 80.8131C413.232 80.8695 418.072 76.7751 418.072 71.835V64.904C418.072 63.1865 416.874 61.7769 415.407 61.7769Z" fill="#FFB27D"/>
<path d="M401.837 68.8293C401.837 68.8293 401.85 64.414 405.354 63.7374C408.852 63.0564 416.688 65.8887 417.795 62.6704C418.906 59.4522 402.653 59.5085 401.837 61.5601C401.021 63.6116 401.837 68.8293 401.837 68.8293Z" fill="#B64C41"/>
<path d="M390.281 143.851C390.281 143.851 391.397 177.851 389.73 197.251C388.063 216.652 389.743 243.651 389.743 243.651C389.743 243.651 395.073 246.588 400.851 243.651C400.851 243.651 407.185 206.173 407.146 197.251C407.102 187.753 414.044 145.33 414.044 145.33L390.285 143.847L390.281 143.851Z" fill="#233862"/>
<path d="M429.697 243.651C429.697 243.651 424.371 246.588 418.593 243.651C418.593 243.651 412.26 206.173 412.299 197.251C412.316 193.239 411.092 183.355 409.668 173.275C407.719 159.487 405.405 145.334 405.405 145.334L430.084 143.794C430.084 143.794 428.048 177.855 429.715 197.251C431.382 216.652 429.702 243.651 429.702 243.651H429.697Z" fill="#2A4E96"/>
<path d="M397.305 150.6C393.302 150.07 390.429 149.507 390.429 149.507C390.429 149.507 388.297 149.693 389.556 139.184C390.515 131.186 390.216 123.969 389.999 116.539C389.973 115.715 389.994 114.735 390.042 113.65C390.654 114.631 397.491 125.66 399.332 133.858C400.673 139.834 398.65 146.878 397.305 150.6Z" fill="#27437C"/>
<path d="M425.426 88.7112V88.7242C422.222 87.9175 419.209 87.3883 416.427 87.0631C413.97 90.3247 412.203 91.0794 409.959 91.9685C406.343 91.4697 403.295 87.0197 403.295 86.9199C399.358 87.3233 396.701 88.0433 395.62 88.3816C395.408 88.4076 383.852 89.9343 367.504 123.184C367.504 123.184 368.385 126.246 372.674 131.585C375.726 135.38 380.505 140.333 387.915 146.15C387.915 146.15 388.614 144.653 389.252 142.237C389.252 142.237 384.846 133.671 382.194 127.868C380.905 125.044 380.028 122.876 380.279 122.668C380.757 122.273 386.088 117.649 390.025 114.232C389.995 115.086 389.986 115.862 390.003 116.535C390.216 123.965 390.515 131.182 389.56 139.18C388.302 149.689 390.433 149.502 390.433 149.502C390.433 149.502 393.302 150.062 397.309 150.595C400.929 151.081 405.479 151.537 409.664 151.537C419.261 151.537 429.784 149.502 429.784 149.502C432.814 149.541 428.933 130.674 428.369 119.324C428.239 116.687 428.117 114.284 428 112.085C431.62 115.225 439.629 122.182 440.22 122.672C440.472 122.88 439.595 125.049 438.305 127.872C435.653 133.676 431.247 142.242 431.247 142.242C431.885 144.658 432.584 146.154 432.584 146.154C439.998 140.333 444.778 135.385 447.825 131.589C452.114 126.25 452.995 123.188 452.995 123.188C436.491 89.622 425.421 88.7112 425.421 88.7112H425.426Z" fill="#D1E4DF"/>
<path d="M388.371 142.663C388.371 142.663 392.369 138.963 394.001 141.036C395.629 143.109 395.929 146.362 394.67 146.141C393.411 145.92 390.819 144.736 390.446 145.326C390.077 145.916 388.419 147.048 387.915 146.15C387.412 145.252 388.375 142.663 388.375 142.663H388.371Z" fill="#FFB27D"/>
<path d="M389.252 142.242C388.614 144.658 387.915 146.154 387.915 146.154C380.501 140.334 375.721 135.385 372.674 131.59C374.975 131.421 378.33 130.596 382.194 127.877C384.846 133.68 389.252 142.246 389.252 142.246V142.242Z" fill="#FFB27D"/>
<path d="M432.128 142.663C432.128 142.663 428.13 138.963 426.498 141.036C424.87 143.109 424.57 146.362 425.829 146.141C427.088 145.92 429.68 144.736 430.053 145.326C430.422 145.916 432.085 147.048 432.588 146.15C433.092 145.252 432.128 142.663 432.128 142.663Z" fill="#FFB27D"/>
<path d="M431.247 142.242C431.885 144.658 432.584 146.154 432.584 146.154C439.998 140.334 444.778 135.385 447.825 131.59C445.525 131.421 442.169 130.596 438.305 127.877C435.653 133.68 431.247 142.246 431.247 142.246V142.242Z" fill="#FFB27D"/>
<path d="M403.665 85.2285C403.665 85.2285 402.489 85.7186 402.154 87.0502C402.154 87.0502 406.869 91.8992 409.955 91.973L403.661 85.2329L403.665 85.2285Z" fill="#F99746"/>
<path d="M409.955 91.9727L416.041 84.9854C416.041 84.9854 417.295 85.8138 417.278 87.1713C417.278 87.1713 412.568 92.1592 409.95 91.9727H409.955Z" fill="#F99746"/>
<path d="M408.856 91.4566C408.856 91.4566 404.212 131.529 405.826 136.412C406.66 138.928 407.775 141.101 408.661 142.619C409.299 143.712 410.879 143.708 411.513 142.615C412.746 140.476 414.361 137.38 414.361 135.805C414.361 133.259 410.836 91.4219 410.836 91.4219L408.861 91.4566H408.856Z" fill="#F99746"/>
<path d="M407.641 89.492C407.641 89.492 410.449 89.2101 412.16 89.3836C412.498 89.4183 412.689 89.7869 412.52 90.0862C412.043 90.9493 411.062 92.4414 410.041 92.4414C408.605 92.4414 406.369 89.5918 407.641 89.492Z" fill="#EA7C2A"/>
<g clip-path="url(#clip0_420_860)">
<path d="M197.751 42.1398C195.652 46.4124 191.326 46.5812 186.782 48.0868C183.732 49.0994 182.22 54.3313 182.816 58.1509C184.332 67.8331 176.52 66.776 170.655 71.2929C156.609 82.1032 168.125 106.562 184.43 106.926C187.698 106.997 191.344 106.189 194.092 104.359C196.293 102.893 197.796 101.121 200.33 100.002C205.634 97.6568 211.655 96.5198 215.683 92.0118C221.454 85.563 216.061 83.0536 217.328 78.59C218.6 74.1265 225.701 75.7609 226.319 66.665C226.986 56.8274 224.767 48.5664 220.778 44.0185C214.18 36.4904 203.647 36.7658 200.01 39.4883C198.925 40.3011 198.205 41.2027 197.747 42.1354L197.751 42.1398Z" fill="#2C3A64"/>
<path d="M190.562 57.4221C190.562 57.4221 180.197 38.9416 177.676 35.0154C175.155 31.0892 168.583 15.4779 168.352 14.8605C168.117 14.2432 172.874 6.85718 171.816 6.60402C170.753 6.35087 169.579 10.4991 168.446 10.0017C167.307 9.50867 163.995 -0.479947 163.35 0.0174855C162.141 0.94573 165.133 6.21318 164.488 6.54184C163.844 6.87495 161.892 0.745869 160.629 0.927964C159.362 1.11006 163.034 6.54184 162.683 7.02151C162.327 7.50118 158.517 2.38029 157.828 3.47286C157.454 4.06356 161.332 7.94531 160.589 8.30506C159.842 8.66926 156.392 6.16877 156.027 6.88827C155.662 7.61221 159.22 8.59819 160.282 10.5435C161.345 12.4888 163.155 13.3327 163.91 16.9346C164.662 20.5366 165.787 33.5764 169.637 40.083C173.488 46.5896 181.962 60.9885 181.962 60.9885L190.566 57.4176L190.562 57.4221Z" fill="#FFB27D"/>
<path d="M240.746 137.913C240.746 137.913 239.817 136.98 239.528 136.647C239.194 136.256 238.279 135.004 238.279 135.004C238.279 135.004 235.304 130.5 235.655 130.309C236.006 130.118 236.949 130.607 237.229 130.82C237.509 131.033 237.861 131.255 238.141 131.468C238.421 131.682 238.812 131.651 239.106 131.317C239.395 130.989 238.461 129.892 238.061 129.576C236.816 128.599 232.97 126.65 232.569 126.428C232.098 126.165 228.381 117.403 226.869 114.502C224.535 109.679 222.379 104.607 222.134 104.096L218.528 81.4454L209.702 79.5356C209.702 79.5356 213.353 104.731 213.677 105.971C213.833 106.561 220.106 117.318 220.111 117.314C223.535 122.417 226.567 126.903 227.123 127.782C227.123 127.782 228.083 130.856 228.581 132.854C229.079 134.848 230.337 136.483 230.56 137.025C230.591 137.105 231.267 139.001 232.894 140.866C234.295 142.474 233.703 140.293 233.703 140.293C233.703 140.293 231.645 136.838 231.943 136.723C232.174 136.629 233.188 138.584 234.717 140.378C235.113 140.84 235.5 141.293 235.864 141.71C236.816 142.798 237.754 142.514 236.94 141.213C236.656 140.755 236.158 140.005 235.731 139.521C235.268 138.997 235.011 138.366 234.69 137.864C234.05 136.874 233.574 136.154 233.628 136.15C233.699 136.145 233.712 135.857 234.143 136.332C234.664 136.905 235.5 138.37 236.331 139.152C236.802 139.596 237.732 140.582 237.732 140.582C237.732 140.582 239.412 142.017 239.519 141.941C240.088 141.533 239.181 140.156 238.461 139.636C238.172 139.068 237.167 138.055 237.167 138.055C237.167 138.055 235.593 135.546 235.944 135.31C236.233 135.119 241.164 140.382 241.707 139.929C242.151 139.561 240.737 137.908 240.737 137.908L240.746 137.913Z" fill="#FFB27D"/>
<path d="M176.71 219.87C176.71 219.87 175.714 226.745 174.007 228.961C173.434 229.707 172.384 230.649 171.695 231.995C170.623 234.091 171.215 237.209 172.006 238.928C172.411 239.811 171.98 239.807 172.9 240.091C175.634 240.931 178.547 239.514 179.712 236.902C180.361 235.441 180.934 233.496 181.05 231.044C181.343 224.8 183.291 221.628 183.291 221.628L176.715 219.87H176.71Z" fill="#FFB27D"/>
<path d="M206.638 223.009C206.638 223.009 207.252 230.764 206.754 233.282C206.487 234.632 205.002 237.408 205.683 238.678C206.363 239.949 207.145 240.264 207.145 240.264L224.811 240.548C225.771 240.562 225.135 239.949 224.361 239.376C223.09 238.443 222.067 237.83 218.008 235.872C217.741 235.743 216.78 235.134 216.434 234.921C215.553 234.384 214.669 233.54 213.908 232.696C212.641 231.288 212.53 224.462 212.53 224.462L206.643 223.005L206.638 223.009Z" fill="#FFB27D"/>
<path d="M221.334 118.629C221.334 118.629 223.558 131.216 222.099 139.468C220.641 147.72 213.629 224.213 213.629 224.213L205.839 224.653C205.839 224.653 204.207 192.702 204.496 188.256C204.79 183.81 207.102 176.375 207.102 176.375L206.328 150.576L216.159 116.684L221.339 118.629H221.334Z" fill="#BBD5CE"/>
<path d="M197.55 117.31C197.55 117.31 191.414 126.512 189.956 134.134C188.493 141.751 191.028 165.161 188.218 175.145C186.697 180.55 180.93 188.896 180.054 195.878C179.178 202.859 175.741 221.153 175.741 221.153L183.527 222.69L201.623 177.011L215.82 135.724L219.457 114.458L197.55 117.314V117.31Z" fill="#D1E4DF"/>
<path d="M202.517 64.9418C202.517 64.9418 194.394 64.4266 191.184 67.9175C187.969 71.4084 198.311 99.0292 198.898 103.471C199.48 107.912 195.919 119.73 195.919 119.73C195.919 119.73 216.536 123.905 221.427 119.02C221.427 119.02 219.88 109.169 219.649 99.0337C219.591 96.4133 220.138 84.1684 220.093 80.8241C220.013 74.735 212.37 69.2144 211.201 67.9442C210.93 67.651 209.196 66.5673 208.978 67.5C208.76 68.4327 210.067 71.3862 208.978 71.0531C206.425 70.2714 202.522 64.9418 202.522 64.9418H202.517Z" fill="#0184A6"/>
<path d="M180.246 235.525C176.004 236.298 173.177 233.824 171.709 231.968C170.629 234.069 170.104 237.2 170.896 238.923C171.594 240.442 173.634 240.397 175.244 240.46C176.943 240.522 178.259 239.58 179.103 238.106C179.499 237.417 179.904 236.56 180.246 235.525Z" fill="#22373D"/>
<path d="M216.429 234.926C211.756 236.12 208.306 235.308 206.372 234.53C205.874 235.938 205.211 237.706 205.562 238.723C205.994 239.971 206.603 240.251 207.141 240.264C211.409 240.375 222.774 240.526 226.024 240.571C226.478 240.575 226.731 240.046 226.438 239.7C225.629 238.741 216.776 235.139 216.425 234.926H216.429Z" fill="#22373D"/>
<path d="M187.693 51.875C187.693 51.875 199.16 64.1642 200.863 69.1208C202.566 74.0729 199.2 81.1613 194.553 81.4678C189.903 81.7787 179.561 59.6518 179.561 59.6518L187.697 51.875H187.693Z" fill="#0184A6"/>
<path d="M217.586 77.4884C217.586 77.4884 217.577 77.515 217.568 77.5195C217.559 77.5195 217.546 77.5106 217.537 77.4973C217.519 77.4751 217.506 77.4484 217.493 77.4218C217.422 77.293 217.337 77.1997 217.253 77.1197C217.128 76.9998 217.004 76.8932 216.879 76.7778C216.746 76.6578 216.612 76.5379 216.475 76.4136C216.372 76.3159 216.27 76.2048 216.177 76.0627C216.097 75.9472 216.03 75.8184 215.977 75.6674C215.928 75.5209 215.883 75.3698 215.834 75.2233C215.834 75.2144 215.83 75.2055 215.825 75.1922C215.821 75.1611 215.812 75.13 215.825 75.1122C215.843 75.0945 215.857 75.1211 215.87 75.1433C215.968 75.2943 216.074 75.3832 216.186 75.4409C216.257 75.4764 216.323 75.5031 216.395 75.5342C216.532 75.5964 216.666 75.6541 216.799 75.7296C216.937 75.8051 217.066 75.9295 217.173 76.1426C217.355 76.4935 217.493 76.871 217.551 77.2841C217.559 77.3507 217.564 77.4173 217.573 77.4973L217.586 77.4884Z" fill="#92CE29"/>
<path d="M218.097 78.0126C218.102 78.1858 218.088 78.3102 218.057 78.4212C218.017 78.5589 217.973 78.6966 217.928 78.8387C217.919 78.8565 217.915 78.8743 217.897 78.8698C217.888 78.8698 217.884 78.8609 217.884 78.8476C217.875 78.6788 217.835 78.5056 217.813 78.3324C217.799 78.2169 217.786 78.1015 217.782 77.9904C217.768 77.8261 217.782 77.6795 217.813 77.5552C217.848 77.4175 217.888 77.2887 217.928 77.1599C217.928 77.151 217.928 77.1421 217.937 77.1421C217.946 77.1421 217.955 77.1332 217.964 77.1421C217.973 77.151 217.982 77.1732 217.986 77.191C217.99 77.2176 217.995 77.2487 217.999 77.2754C218.026 77.453 218.053 77.6307 218.075 77.8039C218.084 77.8838 218.088 77.9549 218.093 78.0082L218.097 78.0126Z" fill="#92CE29"/>
<path d="M216.959 77.7283C216.959 77.6883 216.972 77.675 216.995 77.6972C217.03 77.7283 217.07 77.7594 217.106 77.7905C217.19 77.8571 217.275 77.9193 217.355 77.9992C217.47 78.1147 217.577 78.2657 217.661 78.4523C217.733 78.6033 217.804 78.7587 217.862 78.923C217.875 78.9541 217.879 78.9852 217.888 79.0207C217.888 79.0296 217.888 79.0385 217.888 79.0474C217.888 79.043 217.879 79.0341 217.875 79.0296C217.866 79.0163 217.853 79.003 217.839 78.9941C217.799 78.9586 217.764 78.923 217.724 78.8875C217.63 78.812 217.537 78.7454 217.439 78.6654C217.381 78.6166 217.324 78.55 217.266 78.4833C217.19 78.3945 217.137 78.2702 217.088 78.1325C217.043 78.0126 217.008 77.8926 216.968 77.7683C216.968 77.755 216.963 77.7416 216.959 77.7372V77.7283Z" fill="#92CE29"/>
<path d="M218.155 79.0872C218.133 79.2026 218.097 79.2914 218.057 79.3803C218.039 79.4247 218.013 79.4647 217.986 79.5046C217.973 79.5224 217.964 79.5535 217.942 79.5268C217.919 79.5002 217.928 79.4647 217.928 79.4336C217.928 79.367 217.924 79.3048 217.924 79.2382C217.924 79.1538 217.897 79.0783 217.866 79.0028C217.804 78.8695 217.737 78.7363 217.661 78.6208C217.564 78.4742 217.461 78.3277 217.364 78.1811C217.355 78.1722 217.35 78.1545 217.341 78.1456C217.341 78.1456 217.341 78.1367 217.341 78.1323C217.355 78.1411 217.368 78.15 217.381 78.1633C217.435 78.23 217.488 78.2921 217.537 78.3632C217.644 78.5187 217.746 78.6697 217.835 78.8518C217.853 78.8917 217.875 78.9317 217.897 78.9806C217.897 78.9539 217.893 78.9317 217.888 78.9095C217.879 78.7629 217.839 78.6208 217.795 78.4742C217.688 78.1367 217.541 77.8436 217.368 77.5904C217.359 77.5771 217.35 77.5638 217.341 77.5504C217.337 77.5416 217.332 77.5327 217.328 77.5193V77.5105C217.337 77.5149 217.346 77.5193 217.359 77.5282C217.372 77.5416 217.386 77.5549 217.395 77.5726C217.55 77.7992 217.693 78.0479 217.795 78.3499C217.795 78.3588 217.804 78.3721 217.808 78.381C217.799 78.341 217.79 78.3055 217.782 78.2655C217.71 77.959 217.635 77.6526 217.519 77.355C217.453 77.1818 217.377 77.0086 217.301 76.8398C217.177 76.5689 217.021 76.3735 216.857 76.2269C216.719 76.1026 216.577 75.9915 216.43 75.8716C216.35 75.8005 216.27 75.7117 216.185 75.6318C216.176 75.6229 216.172 75.6096 216.163 75.6007V75.5918C216.172 75.5962 216.185 75.6007 216.194 75.6096C216.279 75.6806 216.359 75.7606 216.439 75.8272C216.537 75.9071 216.634 75.9693 216.728 76.0493C216.834 76.1425 216.941 76.2314 217.048 76.3557C217.159 76.4845 217.252 76.64 217.341 76.8176C217.621 77.3994 217.799 78.0123 217.902 78.643C217.902 78.6519 217.902 78.6608 217.906 78.6697C217.973 78.2877 218.026 77.9102 217.977 77.4305C217.977 77.4305 217.982 77.4305 217.986 77.435C217.986 77.4572 217.995 77.4749 217.995 77.4971C217.999 77.5638 218.004 77.6304 218.008 77.7014C218.022 77.9102 218.017 78.0967 217.999 78.2833C217.986 78.452 217.968 78.6252 217.937 78.7763C217.928 78.8251 217.924 78.8784 217.933 78.9406C217.95 79.1138 217.964 79.2781 217.955 79.4425C217.955 79.438 217.959 79.438 217.964 79.4336C218.013 79.3314 218.062 79.2337 218.106 79.1404C218.115 79.1182 218.124 79.0916 218.128 79.0649C218.128 79.0561 218.133 79.0472 218.142 79.0649C218.142 79.0738 218.142 79.0827 218.142 79.0916L218.155 79.0872Z" fill="#348419"/>
<path d="M218.266 79.0696C218.266 79.0696 218.266 79.1095 218.266 79.1362C218.261 79.2028 218.221 79.2206 218.177 79.1762C218.137 79.1362 218.11 79.0607 218.105 78.9852C218.105 78.9052 218.128 78.8519 218.168 78.8608C218.217 78.8697 218.266 78.9674 218.27 79.0696H218.266Z" fill="#FFFBD0"/>
<path d="M217.315 77.6393C217.27 77.6171 217.23 77.5327 217.226 77.4528C217.226 77.3728 217.261 77.324 217.306 77.3462C217.35 77.3684 217.39 77.4528 217.395 77.5327C217.395 77.6127 217.363 77.6615 217.319 77.6393H217.315Z" fill="#FFFBD0"/>
<path d="M208.418 78.0833C208.418 78.0833 208.426 78.1056 208.435 78.11C208.444 78.11 208.458 78.0967 208.466 78.0833C208.48 78.0611 208.493 78.0345 208.506 78.0078C208.573 77.879 208.649 77.7769 208.729 77.6881C208.844 77.5593 208.964 77.4394 209.084 77.3106C209.213 77.1773 209.342 77.0485 209.471 76.9064C209.569 76.7998 209.662 76.6754 209.747 76.5289C209.818 76.409 209.88 76.2757 209.92 76.1203C209.96 75.9737 209.992 75.8227 210.027 75.6717C210.027 75.6628 210.027 75.6495 210.032 75.6406C210.032 75.6095 210.04 75.5784 210.023 75.5651C210.005 75.5518 209.992 75.5784 209.978 75.6006C209.889 75.7561 209.787 75.8627 209.68 75.9337C209.614 75.9781 209.542 76.0181 209.476 76.0581C209.342 76.138 209.209 76.218 209.076 76.3068C208.942 76.4001 208.822 76.5378 208.724 76.7509C208.56 77.1062 208.453 77.4793 208.422 77.8702C208.418 77.9323 208.418 77.9945 208.413 78.07L208.418 78.0833Z" fill="#92CE29"/>
<path d="M207.933 78.6386C207.938 78.7985 207.964 78.9184 208.004 79.0161C208.058 79.1404 208.115 79.2648 208.169 79.398C208.178 79.4158 208.182 79.4336 208.2 79.4247C208.209 79.4247 208.213 79.4158 208.213 79.4025C208.213 79.2426 208.236 79.0694 208.244 78.905C208.249 78.794 208.253 78.6874 208.253 78.5808C208.253 78.4254 208.231 78.2877 208.187 78.1767C208.138 78.0523 208.089 77.9413 208.035 77.8302C208.035 77.8258 208.031 77.8169 208.027 77.8169C208.018 77.8169 208.009 77.8125 208 77.8169C207.991 77.8258 207.982 77.848 207.982 77.8658C207.978 77.8924 207.978 77.9191 207.973 77.9457C207.96 78.1145 207.946 78.2788 207.933 78.4431C207.929 78.5142 207.933 78.5853 207.929 78.6341L207.933 78.6386Z" fill="#92CE29"/>
<path d="M209.08 78.23C209.08 78.19 209.062 78.1811 209.04 78.2033C209.004 78.2388 208.969 78.2699 208.933 78.3055C208.853 78.381 208.773 78.4476 208.693 78.532C208.582 78.6563 208.489 78.8118 208.409 78.9983C208.346 79.1493 208.284 79.3048 208.235 79.4646C208.226 79.4957 208.217 79.5268 208.213 79.5579C208.213 79.5668 208.213 79.5757 208.213 79.5846C208.217 79.5801 208.222 79.5712 208.226 79.5668C208.235 79.5535 208.248 79.5402 208.257 79.5268C208.293 79.4869 208.333 79.4513 208.369 79.4158C208.457 79.3314 208.551 79.2603 208.644 79.1715C208.702 79.1182 208.755 79.0472 208.809 78.9761C208.88 78.8828 208.924 78.754 208.964 78.6208C209 78.5009 209.031 78.381 209.062 78.261C209.062 78.2477 209.062 78.2344 209.067 78.23H209.08Z" fill="#92CE29"/>
<path d="M207.95 79.6556C207.977 79.7622 208.026 79.8466 208.075 79.9266C208.101 79.9665 208.128 80.0065 208.155 80.042C208.168 80.0598 208.181 80.0864 208.204 80.0598C208.226 80.0331 208.213 79.9976 208.213 79.9665C208.213 79.9043 208.213 79.8422 208.204 79.78C208.199 79.7 208.217 79.6245 208.248 79.549C208.301 79.4158 208.359 79.2826 208.43 79.1671C208.519 79.0161 208.613 78.8651 208.706 78.7141C208.715 78.7052 208.719 78.6874 208.724 78.6785C208.724 78.6785 208.724 78.6696 208.724 78.6652C208.711 78.6785 208.697 78.683 208.684 78.7007C208.635 78.7674 208.586 78.8384 208.542 78.9095C208.444 79.0694 208.35 79.2248 208.27 79.4069C208.253 79.4469 208.235 79.4869 208.213 79.5357C208.213 79.5091 208.213 79.4868 208.213 79.4691C208.213 79.327 208.239 79.1893 208.279 79.0472C208.368 78.7185 208.493 78.4254 208.653 78.1589C208.662 78.1456 208.67 78.1322 208.679 78.1189C208.684 78.11 208.688 78.1012 208.693 78.0878C208.693 78.0878 208.693 78.0834 208.693 78.0789C208.684 78.0878 208.675 78.0923 208.666 78.1012C208.653 78.1145 208.644 78.1322 208.63 78.15C208.484 78.381 208.359 78.6386 208.275 78.9317C208.275 78.9406 208.266 78.9539 208.261 78.9628C208.266 78.9272 208.27 78.8873 208.279 78.8517C208.328 78.5542 208.386 78.2566 208.479 77.9635C208.537 77.7903 208.599 77.6215 208.662 77.4527C208.768 77.1818 208.911 76.9775 209.071 76.8132C209.204 76.6755 209.342 76.5467 209.475 76.409C209.555 76.329 209.626 76.2358 209.706 76.1469C209.715 76.1381 209.72 76.1247 209.724 76.1114C209.724 76.1114 209.724 76.107 209.724 76.1025C209.715 76.1114 209.702 76.1159 209.698 76.1247C209.618 76.2047 209.542 76.2935 209.466 76.369C209.373 76.4578 209.28 76.5334 209.191 76.6222C209.088 76.7243 208.986 76.8265 208.888 76.9597C208.786 77.0974 208.697 77.2573 208.626 77.4349C208.381 78.0212 208.244 78.6163 208.181 79.2204C208.181 79.2293 208.181 79.2337 208.177 79.247C208.079 78.8917 207.995 78.5497 208.012 78.0967C208.012 78.0967 208.004 78.1011 208.004 78.1056C208.004 78.1234 207.999 78.1456 207.999 78.1633C207.999 78.2255 207.999 78.2877 207.999 78.3543C207.999 78.5497 208.021 78.7229 208.052 78.8962C208.079 79.0516 208.106 79.2115 208.155 79.3536C208.173 79.398 208.173 79.4513 208.173 79.5091C208.164 79.6734 208.164 79.8333 208.186 79.9887C208.186 79.9887 208.181 79.9843 208.177 79.9798C208.119 79.8866 208.061 79.7977 208.008 79.7134C207.995 79.6956 207.986 79.6689 207.977 79.6467C207.977 79.6379 207.968 79.629 207.959 79.6467C207.959 79.6556 207.959 79.6645 207.959 79.669L207.95 79.6556Z" fill="#348419"/>
<path d="M207.835 79.6512C207.835 79.6512 207.835 79.6912 207.844 79.7134C207.857 79.7756 207.897 79.7889 207.942 79.7445C207.982 79.7045 208.004 79.629 208 79.5535C208 79.478 207.964 79.4292 207.929 79.4381C207.88 79.4514 207.831 79.5491 207.835 79.6468V79.6512Z" fill="#FFFBD0"/>
<path d="M208.711 78.1948C208.755 78.1681 208.791 78.0837 208.791 78.0082C208.791 77.9327 208.746 77.8927 208.702 77.9194C208.657 77.946 208.622 78.0304 208.626 78.1059C208.626 78.1814 208.666 78.2259 208.711 78.1992V78.1948Z" fill="#FFFBD0"/>
<path d="M210.223 78.066C210.276 77.9372 210.339 77.8261 210.419 77.7462C210.45 77.7151 210.481 77.6929 210.512 77.684C210.525 77.6796 210.539 77.6751 210.556 77.6796C210.623 77.6796 210.676 77.7284 210.716 77.8173C210.748 77.9016 210.765 77.9994 210.779 78.0971C210.797 78.2259 210.805 78.3591 210.81 78.4968C210.81 78.5767 210.814 78.6522 210.81 78.7322C210.81 78.8121 210.81 78.8921 210.81 78.972C210.81 79.0875 210.81 79.1985 210.81 79.314C210.81 79.3451 210.81 79.3717 210.805 79.4028C210.797 79.4783 210.761 79.5361 210.716 79.5494C210.716 79.5494 210.716 79.5494 210.712 79.5494C210.672 79.5583 210.632 79.5227 210.614 79.4606C210.605 79.4295 210.601 79.4028 210.601 79.3717C210.601 79.3717 210.601 79.3628 210.601 79.3584C210.601 79.2207 210.601 79.083 210.601 78.9409C210.601 78.8254 210.601 78.71 210.596 78.5945C210.596 78.5279 210.592 78.4613 210.588 78.3991C210.588 78.3103 210.574 78.2259 210.561 78.1415C210.556 78.1148 210.552 78.0926 210.543 78.0704C210.534 78.0393 210.525 78.0304 210.512 78.0304C210.507 78.0304 210.499 78.0349 210.49 78.0482C210.454 78.0793 210.427 78.1282 210.401 78.177C210.285 78.4213 210.21 78.6966 210.187 78.9942C210.183 79.0475 210.183 79.1008 210.187 79.1541C210.187 79.2296 210.201 79.3007 210.205 79.3762C210.205 79.4028 210.21 79.4295 210.21 79.4561C210.21 79.4606 210.21 79.4694 210.21 79.4739C210.21 79.5583 210.178 79.6338 210.134 79.656C210.13 79.656 210.125 79.656 210.121 79.6604C210.076 79.6737 210.041 79.6382 210.023 79.5672C210.014 79.5361 210.01 79.5005 210.01 79.465C210.005 79.3762 209.996 79.2829 209.992 79.1941C209.978 79.012 209.969 78.8254 209.961 78.6389C209.956 78.5057 209.952 78.3724 209.947 78.2392C209.947 78.217 209.947 78.1948 209.947 78.1726C209.961 78.1059 209.987 78.0527 210.023 78.0393C210.063 78.026 210.094 78.0526 210.112 78.1104C210.112 78.1326 210.121 78.1548 210.121 78.177C210.121 78.2081 210.121 78.2392 210.121 78.2747C210.152 78.1992 210.178 78.1282 210.21 78.0571L210.223 78.066Z" fill="white"/>
<path d="M211.494 79.0784C211.459 79.1672 211.414 79.2471 211.357 79.3004C211.321 79.336 211.285 79.3537 211.25 79.3626C211.174 79.3759 211.103 79.3271 211.045 79.2205C211.001 79.1361 210.974 79.0295 210.952 78.9185C210.934 78.8075 210.925 78.6964 210.921 78.5854C210.921 78.5054 210.921 78.4255 210.921 78.3411C210.921 78.2079 210.925 78.0746 210.934 77.9414C210.934 77.9059 210.939 77.8703 210.952 77.8348C210.97 77.7859 210.992 77.7593 211.023 77.7549C211.05 77.746 211.081 77.7637 211.103 77.8037C211.121 77.8348 211.125 77.8703 211.125 77.9059C211.125 77.9192 211.125 77.9325 211.125 77.9414C211.125 78.1146 211.125 78.2834 211.125 78.4566C211.125 78.5054 211.125 78.5499 211.134 78.5987C211.143 78.7009 211.148 78.8074 211.179 78.9007C211.188 78.9318 211.197 78.9629 211.21 78.9851C211.219 79.0029 211.228 79.0073 211.241 79.0073C211.245 79.0073 211.254 79.0029 211.263 78.994C211.299 78.954 211.321 78.9007 211.343 78.843C211.366 78.7675 211.383 78.6875 211.397 78.6031C211.441 78.3589 211.468 78.1057 211.477 77.8526C211.477 77.8215 211.477 77.7859 211.486 77.7549C211.494 77.6705 211.534 77.6127 211.583 77.5994C211.632 77.595 211.677 77.6438 211.686 77.7282C211.69 77.7726 211.695 77.8126 211.699 77.8614C211.699 77.8881 211.699 77.9192 211.699 77.9458C211.708 78.1412 211.717 78.3367 211.735 78.5365C211.743 78.6609 211.752 78.7852 211.775 78.9052C211.775 78.9185 211.775 78.9318 211.775 78.9451C211.775 79.0162 211.752 79.0828 211.717 79.1139C211.703 79.1228 211.69 79.1361 211.677 79.1361C211.646 79.1405 211.61 79.1183 211.588 79.0739C211.575 79.0473 211.566 79.0162 211.561 78.9807C211.561 78.9585 211.552 78.9362 211.548 78.8963C211.526 78.9673 211.508 79.0295 211.486 79.0828L211.494 79.0784Z" fill="white"/>
<path d="M212.117 78.7232C212.117 78.7232 212.117 78.7276 212.117 78.7321C212.117 78.7454 212.126 78.7543 212.13 78.7632C212.166 78.8298 212.21 78.8609 212.259 78.8697C212.273 78.8697 212.286 78.8697 212.299 78.8697C212.353 78.8609 212.406 78.8387 212.459 78.7987C212.477 78.7854 212.495 78.772 212.513 78.7676C212.557 78.7676 212.588 78.7942 212.611 78.8564C212.62 78.8831 212.624 78.9097 212.624 78.9364C212.624 78.9719 212.624 79.0119 212.606 79.0474C212.588 79.0918 212.566 79.1229 212.535 79.1407C212.464 79.1851 212.393 79.2251 212.317 79.2339C212.157 79.2517 212.001 79.1496 211.913 78.8875C211.868 78.7543 211.841 78.5988 211.837 78.4434C211.824 78.1502 211.877 77.8438 211.979 77.6262C212.059 77.4574 212.162 77.3552 212.286 77.3375C212.468 77.3108 212.628 77.4974 212.668 77.8083C212.673 77.8349 212.673 77.8616 212.677 77.8882C212.677 77.9815 212.668 78.0747 212.642 78.1591C212.566 78.4301 212.442 78.5944 212.273 78.6743C212.259 78.6832 212.242 78.6876 212.228 78.6921C212.21 78.6921 212.193 78.701 212.175 78.701C212.157 78.701 212.139 78.7054 212.122 78.7099C212.113 78.7099 212.113 78.7099 212.108 78.7276L212.117 78.7232ZM212.215 78.3501C212.322 78.2968 212.397 78.1858 212.451 78.0259C212.464 77.9859 212.468 77.9504 212.468 77.906C212.468 77.8927 212.468 77.8793 212.464 77.8616C212.442 77.755 212.379 77.6839 212.313 77.6928C212.308 77.6928 212.299 77.6928 212.295 77.6972C212.228 77.7194 212.175 77.7816 212.135 77.8793C212.082 78.0081 212.059 78.1547 212.055 78.3057C212.055 78.3057 212.055 78.3146 212.055 78.319C212.055 78.3457 212.068 78.359 212.082 78.3634C212.104 78.3634 212.122 78.3723 212.144 78.3723C212.148 78.3723 212.153 78.3723 212.157 78.3723C212.175 78.3723 212.197 78.359 212.215 78.3501Z" fill="white"/>
<path d="M213.166 78.7678C213.095 78.7456 213.019 78.71 212.957 78.6434C212.832 78.5102 212.766 78.3192 212.757 78.0882C212.757 78.0571 212.757 78.0305 212.757 77.9994C212.761 77.7196 212.828 77.4753 212.957 77.2977C213.028 77.1955 213.108 77.1245 213.206 77.12C213.335 77.1111 213.464 77.2577 213.517 77.4664C213.544 77.5686 213.557 77.6752 213.562 77.7773C213.562 77.8839 213.562 77.9905 213.539 78.0971C213.526 78.1726 213.495 78.217 213.455 78.217C213.446 78.217 213.437 78.217 213.428 78.217C213.384 78.2037 213.357 78.1371 213.353 78.0616C213.353 78.0483 213.353 78.0394 213.353 78.0305C213.353 77.9594 213.362 77.8884 213.357 77.8129C213.357 77.8084 213.357 77.7995 213.357 77.7951C213.357 77.7462 213.348 77.7018 213.339 77.6574C213.313 77.5464 213.268 77.4886 213.215 77.4931C213.193 77.4931 213.17 77.5064 213.153 77.5242C213.086 77.5775 213.041 77.6619 213.006 77.7729C212.979 77.8573 212.966 77.9505 212.966 78.0438C212.966 78.0527 212.966 78.0616 212.966 78.066C212.966 78.1726 213.001 78.3014 213.081 78.3591C213.135 78.3991 213.193 78.4169 213.246 78.4347C213.299 78.448 213.357 78.4613 213.41 78.488C213.437 78.4968 213.468 78.5146 213.495 78.5412C213.544 78.5857 213.584 78.67 213.588 78.7766C213.588 78.8077 213.588 78.8388 213.584 78.8743C213.566 78.9632 213.539 79.0342 213.495 79.0831C213.433 79.1542 213.366 79.1852 213.29 79.2119C213.241 79.2297 213.197 79.2385 213.148 79.243C213.126 79.243 213.108 79.243 213.086 79.243C213.041 79.2385 213.006 79.2208 212.97 79.1719C212.939 79.1364 212.926 79.0875 212.921 79.0298C212.921 79.0076 212.921 78.9898 212.921 78.9676C212.93 78.8921 212.961 78.8521 213.001 78.8344C213.006 78.8344 213.015 78.8299 213.024 78.8299C213.037 78.8299 213.05 78.8299 213.059 78.8433C213.086 78.8699 213.113 78.8788 213.144 78.8743C213.157 78.8743 213.175 78.8744 213.188 78.8699C213.224 78.8655 213.259 78.8521 213.29 78.8211C213.246 78.8077 213.201 78.7944 213.157 78.7811L213.166 78.7678Z" fill="white"/>
<path d="M213.998 78.6964C214.011 78.7719 214.024 78.8029 214.055 78.8029C214.064 78.8029 214.073 78.8029 214.086 78.7985C214.109 78.7896 214.126 78.7763 214.149 78.7585C214.166 78.7408 214.184 78.7319 214.202 78.7363C214.238 78.7363 214.273 78.7763 214.291 78.8252C214.3 78.8518 214.309 78.8873 214.309 78.9184C214.309 78.9806 214.295 79.0383 214.264 79.0739C214.22 79.1272 214.162 79.1538 214.104 79.1627C214.091 79.1627 214.073 79.1627 214.055 79.1627C214.038 79.1627 214.024 79.1627 214.006 79.1538C213.926 79.1272 213.864 79.0561 213.824 78.9273C213.784 78.7985 213.766 78.6564 213.757 78.5143C213.757 78.4565 213.749 78.3988 213.749 78.3366C213.744 78.2078 213.744 78.079 213.744 77.9502C213.744 77.9413 213.744 77.9369 213.744 77.9324C213.744 77.9236 213.744 77.9102 213.744 77.9013C213.744 77.8791 213.74 77.8703 213.722 77.8658C213.686 77.8658 213.655 77.8347 213.637 77.777C213.633 77.7548 213.624 77.7326 213.624 77.7104C213.624 77.6526 213.642 77.5949 213.673 77.5638C213.686 77.5505 213.704 77.5416 213.722 77.5327C213.757 77.515 213.762 77.5061 213.762 77.4394C213.762 77.4084 213.762 77.3728 213.762 77.3417C213.771 77.2574 213.811 77.2085 213.851 77.2085C213.851 77.2085 213.86 77.2085 213.864 77.2085C213.913 77.2263 213.949 77.3018 213.953 77.3906C213.953 77.3906 213.953 77.395 213.953 77.3995C213.953 77.4039 213.953 77.4084 213.953 77.4128C213.953 77.4172 213.953 77.4217 213.953 77.4306C213.953 77.4617 213.957 77.4661 213.98 77.4661C213.989 77.4661 214.002 77.4661 214.011 77.4661C214.033 77.4661 214.055 77.4661 214.078 77.4617C214.091 77.4617 214.104 77.4572 214.118 77.4572C214.14 77.4572 214.162 77.4661 214.184 77.475C214.238 77.4972 214.273 77.5727 214.278 77.6526C214.278 77.6615 214.278 77.666 214.278 77.6748C214.273 77.7681 214.233 77.8258 214.175 77.8258H214.166C214.14 77.8214 214.109 77.817 214.078 77.817C214.051 77.817 214.02 77.817 213.989 77.8258C213.957 77.8258 213.953 77.8392 213.953 77.8969C213.957 78.0568 213.962 78.2122 213.962 78.3721C213.962 78.381 213.962 78.3943 213.962 78.4032C213.962 78.5054 213.975 78.6031 213.993 78.7008L213.998 78.6964Z" fill="white"/>
<path d="M214.616 77.484C214.66 77.3908 214.714 77.3108 214.785 77.2708C214.816 77.2531 214.847 77.2486 214.878 77.2531C214.958 77.2619 215.029 77.3374 215.083 77.4707C215.141 77.6084 215.167 77.7594 215.176 77.9104C215.176 77.9459 215.176 77.9859 215.176 78.0214C215.167 78.279 215.096 78.4611 214.976 78.5988C214.963 78.6121 214.949 78.6254 214.936 78.6432C214.949 78.661 214.967 78.6654 214.98 78.6743C215.029 78.7009 215.083 78.7276 215.132 78.7676C215.176 78.7987 215.212 78.8564 215.216 78.9408C215.216 78.9408 215.216 78.9452 215.216 78.9497C215.216 79.0518 215.181 79.1184 215.127 79.114C215.118 79.114 215.109 79.114 215.1 79.1051C215.052 79.0785 215.007 79.0518 214.958 79.0207C214.869 78.9674 214.776 78.9408 214.683 78.9141C214.678 78.9141 214.674 78.9141 214.669 78.9141C214.656 78.9141 214.651 78.9186 214.651 78.9452C214.651 78.9541 214.651 78.9674 214.651 78.9808C214.651 79.0074 214.66 79.0296 214.674 79.0518C214.687 79.0829 214.691 79.1184 214.691 79.154C214.691 79.2161 214.678 79.2694 214.647 79.305C214.629 79.3227 214.611 79.3316 214.594 79.3316C214.558 79.3316 214.522 79.3005 214.5 79.2472C214.482 79.2028 214.469 79.1495 214.46 79.0962C214.442 78.9808 214.429 78.8653 214.416 78.7454C214.389 78.4744 214.371 78.1946 214.362 77.9237C214.358 77.7727 214.358 77.6261 214.354 77.4751C214.354 77.4396 214.354 77.4041 214.358 77.373C214.367 77.3019 214.402 77.2486 214.447 77.2531C214.447 77.2531 214.447 77.2531 214.451 77.2531C214.5 77.2619 214.54 77.333 214.545 77.4218C214.545 77.444 214.545 77.4707 214.545 77.4929C214.545 77.5418 214.545 77.595 214.549 77.6528C214.576 77.595 214.594 77.5418 214.616 77.4973V77.484ZM214.932 77.6972C214.914 77.6439 214.9 77.6217 214.883 77.6173C214.869 77.6173 214.856 77.6261 214.838 77.6439C214.803 77.6839 214.771 77.7416 214.749 77.8038C214.691 77.9637 214.647 78.1369 214.629 78.3323C214.629 78.3456 214.629 78.359 214.629 78.3678C214.629 78.3856 214.634 78.3945 214.651 78.3989C214.656 78.3989 214.66 78.3989 214.669 78.3989C214.763 78.3856 214.847 78.3234 214.909 78.208C214.954 78.1236 214.972 78.0214 214.967 77.9148C214.967 77.8482 214.949 77.7461 214.936 77.6972H214.932Z" fill="white"/>
<path d="M215.354 78.7189C215.341 78.6567 215.332 78.599 215.332 78.5368C215.332 78.519 215.332 78.5057 215.332 78.4879C215.332 78.4657 215.327 78.4435 215.319 78.4213C215.283 78.3325 215.261 78.2348 215.261 78.137C215.261 78.0882 215.261 78.0349 215.265 77.9816C215.283 77.7773 215.336 77.6085 215.43 77.4931C215.496 77.4087 215.568 77.382 215.648 77.3953C215.732 77.4131 215.821 77.4931 215.901 77.6219C216.003 77.7906 216.061 77.9949 216.097 78.2126C216.11 78.2969 216.119 78.3813 216.123 78.4613C216.128 78.6345 216.114 78.7944 216.07 78.9409C216.021 79.1142 215.932 79.2163 215.817 79.2474C215.79 79.2563 215.763 79.2474 215.745 79.2474C215.572 79.2163 215.425 79.012 215.367 78.71L215.354 78.7189ZM215.648 78.257C215.719 78.2481 215.794 78.2392 215.865 78.2303C215.879 78.2303 215.888 78.2214 215.888 78.1992C215.888 78.1948 215.888 78.1903 215.888 78.1815C215.861 78.0438 215.817 77.9194 215.75 77.8217C215.719 77.7817 215.688 77.7551 215.656 77.7462C215.634 77.7462 215.608 77.7462 215.585 77.7729C215.51 77.8484 215.47 77.9772 215.465 78.1459C215.465 78.1637 215.465 78.177 215.465 78.1948C215.465 78.2214 215.479 78.2392 215.492 78.2481C215.505 78.257 215.514 78.257 215.528 78.2614C215.568 78.2614 215.608 78.2614 215.648 78.2525V78.257ZM215.817 78.8699C215.87 78.8166 215.892 78.7322 215.905 78.63C215.905 78.6167 215.905 78.6123 215.905 78.6034C215.905 78.5901 215.901 78.5812 215.888 78.5812C215.888 78.5812 215.883 78.5812 215.879 78.5812C215.874 78.5812 215.87 78.5812 215.865 78.5812C215.763 78.599 215.661 78.6167 215.554 78.6167C215.541 78.6167 215.532 78.6167 215.532 78.63C215.532 78.6389 215.532 78.6478 215.536 78.6611C215.568 78.7988 215.643 78.8965 215.71 78.9054C215.714 78.9054 215.723 78.9054 215.728 78.9054C215.759 78.9099 215.79 78.8965 215.817 78.8654V78.8699Z" fill="white"/>
<path d="M209.712 81.8455C209.738 82.4851 209.445 82.9914 209.205 83.289C209.076 83.4444 208.951 83.5643 208.862 83.6398C208.88 84.2039 208.902 84.768 208.92 85.3364C208.796 85.3364 208.667 85.3276 208.547 85.3231C208.498 83.9374 208.449 82.5695 208.404 81.2237C208.453 81.1927 208.507 81.1616 208.56 81.126C209.133 80.7752 209.351 80.864 209.485 81.0194C209.618 81.1749 209.694 81.4458 209.712 81.8411V81.8455ZM209.316 81.9344C209.307 81.7567 209.285 81.6412 209.249 81.6013C209.187 81.5258 209.031 81.5435 208.796 81.6546C208.809 82.0765 208.827 82.4984 208.84 82.9203C208.889 82.867 208.942 82.8093 208.991 82.7427C209.116 82.5828 209.329 82.2541 209.316 81.9344Z" fill="white"/>
<path d="M211.49 84.488C211.481 84.7367 211.476 84.981 211.468 85.2297C211.348 85.2119 210.667 85.3896 210.134 85.5362C210.054 85.5584 209.978 85.5806 209.898 85.5983C209.84 84.0039 209.782 82.4183 209.725 80.855C209.858 80.8194 209.996 80.7883 210.134 80.7573C210.183 82.0852 210.231 83.4176 210.28 84.7634C210.663 84.6523 211.303 84.4613 211.49 84.488ZM212.139 85.5406C211.992 85.5495 211.845 85.5539 211.703 85.5584C211.685 85.1409 211.641 84.5724 211.574 83.9772C211.463 83.9772 211.352 83.9772 211.259 83.9684C211.205 83.9684 211.103 83.9817 210.983 84.0128C210.983 84.1327 210.983 84.2526 210.992 84.3636C210.85 84.3725 210.707 84.3814 210.569 84.3903C210.569 84.3148 210.565 84.2304 210.565 84.1416C210.543 84.1505 210.52 84.1549 210.498 84.1638C210.467 83.9284 210.436 83.693 210.4 83.4576C210.432 83.4487 210.494 83.4221 210.574 83.3954C210.587 82.9824 210.618 82.5427 210.658 82.1252C210.787 80.7573 210.952 80.4597 211.094 80.3531C211.174 80.2954 211.263 80.3042 211.339 80.3842C211.419 80.473 211.592 80.6418 211.863 82.6937C211.886 82.8669 211.908 83.0446 211.93 83.2178C212.001 83.2178 212.046 83.2089 212.05 83.2089C212.059 83.4576 212.068 83.7108 212.077 83.9595C212.077 83.9595 212.05 83.9595 212.014 83.9595C212.081 84.5857 212.126 85.1586 212.143 85.5362L212.139 85.5406ZM211.485 83.2311C211.388 82.4716 211.281 81.761 211.187 81.3435C211.112 81.7788 211.032 82.5249 211.001 83.2577C211.103 83.2311 211.201 83.2178 211.267 83.2222C211.334 83.2222 211.41 83.2267 211.485 83.2267V83.2311Z" fill="white"/>
<path d="M213.816 80.3086C213.86 82.054 213.905 83.7951 213.949 85.5361C213.771 85.5494 213.589 85.5627 213.411 85.576C213.198 85.5894 213.126 85.2252 213.011 84.6167C212.94 84.2436 212.851 83.724 212.744 83.0756C212.66 82.5692 212.58 82.0585 212.522 81.6543C212.522 81.9475 212.522 82.2539 212.526 82.4449C212.526 82.6492 212.571 83.2088 212.611 83.7506C212.655 84.3103 212.695 84.8921 212.709 85.2385C212.562 85.2474 212.415 85.2563 212.268 85.2607C212.255 84.9365 212.215 84.3724 212.171 83.8261C212.126 83.2132 212.086 82.6892 212.082 82.4449C212.077 82.0096 212.077 80.9304 212.077 80.8105C212.077 80.695 212.108 80.5884 212.162 80.5085C212.197 80.4552 212.282 80.3219 212.633 80.3885C212.686 80.3974 212.735 80.4063 212.789 80.4196C212.802 80.504 212.815 80.5928 212.829 80.6772C213.064 82.245 213.344 83.9772 213.487 84.67C213.451 83.2177 213.411 81.7609 213.375 80.3086C213.522 80.3086 213.669 80.3086 213.816 80.3086Z" fill="white"/>
<path d="M214.594 83.6618C214.554 83.6928 214.514 83.7239 214.483 83.7461C214.5 83.9638 214.536 84.208 214.603 84.3013C214.612 84.3191 214.647 84.3635 214.745 84.3502C214.776 84.3457 214.856 84.328 214.914 84.057C214.954 83.8661 214.954 83.6662 214.954 83.6662C215.096 83.6751 215.239 83.684 215.381 83.6928C215.381 83.7239 215.381 83.9993 215.323 84.2969C215.234 84.7588 215.052 85.0386 214.803 85.0919C214.785 85.0919 214.767 85.0963 214.745 85.1008C214.585 85.1141 214.443 85.0386 214.331 84.8787C214.109 84.5678 214.056 84.0259 214.025 83.4841C213.98 82.6758 214.1 81.7031 214.46 81.3656C214.709 81.1302 214.905 81.259 214.998 81.3522C215.194 81.5521 215.314 81.9607 215.336 82.4804C215.345 82.7424 215.247 82.9733 215.016 83.2531C214.896 83.3953 214.745 83.5463 214.594 83.6662V83.6618ZM216.728 80.5794C216.688 80.7837 216.644 80.9881 216.604 81.1968C216.541 81.1524 216.328 81.0991 215.981 81.0636C215.981 81.6409 215.981 82.7912 216.012 83.2221C216.057 83.8527 216.074 84.9675 216.079 85.0119C215.941 85.0164 215.803 85.0208 215.665 85.0253C215.665 85.0119 215.648 83.8749 215.603 83.2709C215.568 82.8001 215.568 81.6498 215.568 81.028C215.154 81.0103 214.621 81.0191 214.007 81.0813C213.989 80.8282 213.976 80.5794 213.958 80.3263C213.962 80.3263 214.589 80.2597 215.225 80.2819C216.537 80.3441 216.657 80.5262 216.732 80.5706L216.728 80.5794ZM214.465 82.9245C214.505 82.889 214.554 82.8445 214.603 82.7957C214.794 82.6091 214.874 82.4759 214.905 82.4182C214.887 82.1561 214.834 82.014 214.803 81.9785C214.794 81.9696 214.789 81.9696 214.781 81.9696C214.749 81.9696 214.705 82.0051 214.692 82.0184C214.58 82.125 214.492 82.4892 214.469 82.9245H214.465Z" fill="white"/>
<path d="M218.057 84.9767C217.941 84.9944 217.821 85.0122 217.701 85.0255C217.688 84.6746 217.648 84.195 217.594 83.6842C217.501 83.6798 217.408 83.6709 217.323 83.6576C217.283 83.6531 217.208 83.6576 217.123 83.6753C217.11 84.1239 217.105 84.5325 217.119 84.799C216.99 84.8123 216.861 84.8257 216.727 84.839C216.718 84.5681 216.718 84.1905 216.727 83.773C216.692 83.7819 216.656 83.7953 216.63 83.8041C216.598 83.5776 216.567 83.3511 216.536 83.1246C216.572 83.1157 216.652 83.0935 216.75 83.0713C216.758 82.8226 216.772 82.5694 216.79 82.3296C216.821 81.8366 216.861 81.4236 216.905 81.1216C216.972 80.6508 217.052 80.4465 217.172 80.4065C217.243 80.3843 217.319 80.4287 217.385 80.5264C217.457 80.6241 217.603 80.8728 217.83 82.6316C217.848 82.7782 217.866 82.9292 217.883 83.0758C217.941 83.0802 217.977 83.0846 217.981 83.0846C217.99 83.2889 217.995 83.4932 218.003 83.6975C218.003 83.6975 217.981 83.6975 217.955 83.6975C218.008 84.2127 218.043 84.6746 218.057 84.9767ZM217.519 83.0402C217.443 82.4184 217.354 81.8055 217.279 81.4102C217.243 81.6634 217.203 82.0542 217.168 82.6405C217.163 82.7604 217.154 82.8848 217.145 83.0091C217.216 83.0047 217.283 83.0047 217.332 83.0091C217.39 83.0225 217.452 83.0313 217.519 83.0402Z" fill="white"/>
<path d="M208.546 86.6375C208.546 86.6375 208.551 86.6375 208.555 86.6375C208.631 86.6508 208.693 86.7663 208.698 86.8907C208.698 86.8951 208.698 86.8995 208.698 86.904C208.698 87.0417 208.644 87.1305 208.569 87.1172C208.489 87.0994 208.426 86.9839 208.422 86.8551C208.422 86.8551 208.422 86.8507 208.422 86.8462C208.422 86.7174 208.48 86.6242 208.555 86.6375H208.546ZM208.489 87.5302C208.489 87.4814 208.489 87.4325 208.493 87.3881C208.515 87.2948 208.555 87.2504 208.618 87.2637C208.675 87.277 208.729 87.3437 208.751 87.4503C208.76 87.4858 208.764 87.5169 208.764 87.548C208.764 87.5879 208.764 87.6235 208.764 87.6635C208.769 87.8322 208.786 87.9966 208.8 88.1698C208.822 88.4451 208.822 88.7205 208.849 89.0003C208.849 89.0181 208.849 89.0403 208.849 89.0625C208.849 89.0847 208.849 89.1025 208.849 89.1202C208.849 89.249 208.791 89.3378 208.724 89.3245C208.715 89.3245 208.706 89.3245 208.702 89.3201C208.631 89.2934 208.577 89.2002 208.551 89.0714C208.537 89.0047 208.529 88.9426 208.529 88.8804C208.52 88.6539 208.511 88.4274 208.502 88.2009C208.493 87.9788 208.484 87.7567 208.475 87.5346L208.489 87.5302Z" fill="white"/>
<path d="M209.969 87.5658C210.005 87.3526 210.054 87.1528 210.116 86.9573C210.165 86.8019 210.232 86.6731 210.316 86.5754C210.383 86.4954 210.454 86.4644 210.521 86.4644C210.663 86.4644 210.792 86.6287 210.859 86.873C210.912 87.0551 210.934 87.2505 210.952 87.4415C210.97 87.588 210.979 87.7346 210.983 87.8767C210.983 87.9389 210.988 87.9966 210.988 88.0588C210.997 88.3741 210.992 88.685 210.988 89.0004C210.988 89.1691 210.988 89.3379 210.988 89.5111C210.988 89.6843 210.912 89.7909 210.828 89.7776C210.792 89.7732 210.756 89.751 210.721 89.7065C210.668 89.6399 210.641 89.5511 210.636 89.4534C210.636 89.409 210.632 89.3646 210.628 89.3202C210.628 89.258 210.628 89.1958 210.628 89.1336C210.636 88.7206 210.636 88.3031 210.619 87.8856C210.614 87.7701 210.61 87.6546 210.601 87.5347C210.592 87.4059 210.579 87.2727 210.552 87.1483C210.543 87.1039 210.539 87.0861 210.521 87.0861C210.512 87.0861 210.503 87.095 210.49 87.1172C210.445 87.1839 210.419 87.2682 210.396 87.3526C210.334 87.5614 210.299 87.7879 210.263 88.01C210.205 88.3875 210.178 88.7739 210.17 89.1691C210.17 89.2269 210.165 89.2802 210.147 89.3335C210.121 89.4267 210.072 89.4756 210.009 89.4667C210.005 89.4667 210.001 89.4667 209.996 89.4667C209.934 89.4534 209.885 89.4001 209.849 89.3024C209.832 89.2491 209.818 89.1914 209.805 89.1381C209.761 88.9115 209.743 88.685 209.716 88.463C209.703 88.3431 209.689 88.2276 209.676 88.1121C209.676 88.0988 209.676 88.081 209.663 88.0721C209.663 88.0721 209.658 88.0677 209.654 88.0677C209.645 88.0677 209.64 88.081 209.636 88.0899C209.605 88.161 209.583 88.2365 209.569 88.3208C209.507 88.6007 209.467 88.8938 209.467 89.2136C209.467 89.2757 209.463 89.3379 209.445 89.3868C209.418 89.4889 209.36 89.5333 209.298 89.5156C209.249 89.5023 209.196 89.4445 209.16 89.3512C209.134 89.2846 209.12 89.218 209.107 89.1469C209.058 88.9027 209.022 88.6584 208.996 88.4186C208.974 88.1832 208.951 87.9478 208.942 87.7124C208.942 87.6991 208.942 87.6813 208.942 87.668C208.942 87.6413 208.942 87.6102 208.942 87.5836C208.951 87.4503 209.005 87.3748 209.08 87.3837C209.156 87.4015 209.223 87.5125 209.236 87.6502C209.245 87.7524 209.24 87.8501 209.258 87.9522C209.258 87.9611 209.263 87.9655 209.267 87.9789C209.285 87.97 209.285 87.9389 209.294 87.9167C209.329 87.8012 209.369 87.6857 209.418 87.5836C209.485 87.4592 209.565 87.3704 209.676 87.3837C209.769 87.3926 209.845 87.4681 209.907 87.6058C209.916 87.6236 209.925 87.6458 209.934 87.6635C209.934 87.6635 209.934 87.6635 209.943 87.6769C209.965 87.6458 209.965 87.6013 209.969 87.5614V87.5658Z" fill="white"/>
<path d="M211.592 87.0597C211.663 86.8865 211.748 86.7399 211.855 86.6334C211.917 86.5712 211.988 86.5356 212.059 86.5356C212.197 86.5356 212.335 86.6378 212.424 86.8599C212.513 87.0908 212.566 87.3262 212.575 87.5705C212.584 87.7748 212.562 87.988 212.504 88.2012C212.406 88.5787 212.237 88.8363 212.015 88.9873C211.917 89.0539 211.81 89.0939 211.708 89.1161C211.668 89.125 211.655 89.1294 211.655 89.1738C211.655 89.1871 211.655 89.2005 211.655 89.2182C211.677 89.4314 211.677 89.6402 211.726 89.8445C211.735 89.8844 211.739 89.92 211.739 89.9555C211.739 90.071 211.712 90.1731 211.65 90.2175C211.628 90.2309 211.601 90.2397 211.579 90.2353C211.517 90.2353 211.454 90.1731 211.41 90.071C211.374 89.9866 211.357 89.8933 211.348 89.7956C211.33 89.6624 211.317 89.5336 211.308 89.3959C211.29 89.1605 211.272 88.9207 211.259 88.6897C211.246 88.4232 211.223 88.1567 211.21 87.8991C211.201 87.7348 211.197 87.5794 211.188 87.415C211.183 87.2551 211.174 87.0953 211.17 86.9354C211.17 86.8954 211.17 86.8554 211.179 86.8155C211.197 86.6911 211.254 86.6111 211.326 86.6111C211.326 86.6111 211.326 86.6111 211.33 86.6111C211.406 86.62 211.468 86.7089 211.49 86.8421C211.495 86.8732 211.499 86.9087 211.499 86.9442C211.499 86.9753 211.499 87.0064 211.499 87.0375C211.499 87.0686 211.499 87.1041 211.508 87.1397C211.508 87.1619 211.512 87.1752 211.517 87.2107C211.543 87.153 211.561 87.1041 211.579 87.0553L211.592 87.0597ZM211.721 88.4676C211.912 88.4055 212.068 88.2545 212.161 87.9524C212.197 87.837 212.215 87.7126 212.21 87.5927C212.21 87.4817 212.184 87.3751 212.153 87.264C212.135 87.1974 212.108 87.1619 212.081 87.1619C212.064 87.1619 212.041 87.1796 212.019 87.2063C211.97 87.2729 211.926 87.3529 211.89 87.4461C211.779 87.7393 211.712 88.0679 211.672 88.4143C211.672 88.4277 211.672 88.4365 211.672 88.4454C211.672 88.4543 211.672 88.4632 211.677 88.4676C211.677 88.4676 211.677 88.4721 211.681 88.4765C211.695 88.4765 211.708 88.4676 211.721 88.4632V88.4676Z" fill="white"/>
<path d="M212.873 89.0671C212.851 88.9649 212.837 88.8583 212.833 88.7473C212.833 88.7207 212.833 88.6896 212.833 88.6629C212.833 88.6229 212.824 88.5874 212.811 88.5519C212.744 88.4009 212.713 88.2365 212.704 88.0633C212.704 87.9745 212.704 87.8812 212.713 87.788C212.744 87.4149 212.842 87.0951 213.006 86.8508C213.127 86.6732 213.255 86.5844 213.398 86.5755C213.553 86.5621 213.709 86.6554 213.856 86.8464C214.042 87.0951 214.149 87.4282 214.216 87.8057C214.243 87.9567 214.256 88.1033 214.26 88.2454C214.274 88.5563 214.243 88.8583 214.162 89.1603C214.069 89.5068 213.913 89.7422 213.7 89.8576C213.656 89.8843 213.607 89.8798 213.567 89.8932C213.255 89.9154 212.989 89.5912 212.878 89.0671H212.873ZM213.402 88.1166C213.536 88.0678 213.669 88.01 213.802 87.9567C213.829 87.9479 213.842 87.9301 213.842 87.8901C213.842 87.8812 213.842 87.8724 213.842 87.8635C213.789 87.6325 213.713 87.4238 213.589 87.2861C213.536 87.2284 213.478 87.1928 213.42 87.1973C213.38 87.1973 213.331 87.2284 213.295 87.2817C213.158 87.4593 213.082 87.7036 213.078 88.01C213.078 88.0367 213.078 88.0678 213.078 88.0944C213.078 88.1388 213.1 88.1655 213.126 88.1788C213.149 88.1921 213.171 88.1877 213.189 88.1921C213.26 88.1699 213.331 88.1477 213.407 88.1211L213.402 88.1166ZM213.709 89.147C213.802 89.0227 213.851 88.8539 213.873 88.6629C213.873 88.6407 213.873 88.6274 213.873 88.6141C213.873 88.5919 213.86 88.5785 213.842 88.583C213.838 88.583 213.833 88.5874 213.825 88.5874C213.816 88.5874 213.807 88.5918 213.798 88.5963C213.611 88.6851 213.424 88.7651 213.229 88.8095C213.202 88.8139 213.193 88.8184 213.193 88.845C213.193 88.8583 213.193 88.8717 213.202 88.8983C213.255 89.1337 213.398 89.2803 213.518 89.2669C213.527 89.2669 213.54 89.2669 213.549 89.2669C213.607 89.2625 213.66 89.2181 213.709 89.1515V89.147Z" fill="white"/>
<path d="M214.86 86.8374C214.94 86.6553 215.029 86.5043 215.149 86.411C215.203 86.3666 215.252 86.3488 215.305 86.3399C215.438 86.3222 215.558 86.4199 215.652 86.6153C215.75 86.8196 215.794 87.055 215.807 87.3126C215.807 87.3748 215.807 87.437 215.807 87.4991C215.794 87.9388 215.674 88.2897 215.474 88.5828C215.452 88.6139 215.429 88.645 215.403 88.685C215.429 88.7072 215.456 88.7072 215.478 88.7116C215.567 88.7294 215.652 88.7472 215.736 88.7827C215.812 88.8093 215.87 88.8848 215.874 89.027C215.874 89.027 215.874 89.0359 215.874 89.0403C215.879 89.2046 215.816 89.3467 215.723 89.3734C215.705 89.3734 215.692 89.3778 215.674 89.3734C215.594 89.3601 215.514 89.3379 215.434 89.3157C215.283 89.2801 215.127 89.2757 214.967 89.2712C214.958 89.2712 214.949 89.2712 214.94 89.2712C214.918 89.2712 214.909 89.289 214.909 89.329C214.909 89.3468 214.909 89.3645 214.918 89.3867C214.923 89.4311 214.936 89.4622 214.954 89.4978C214.976 89.5466 214.985 89.6044 214.989 89.6621C214.989 89.7687 214.967 89.8664 214.914 89.9375C214.887 89.973 214.851 89.9996 214.82 90.0041C214.762 90.0174 214.7 89.9819 214.66 89.8975C214.625 89.8264 214.607 89.7465 214.589 89.6576C214.558 89.4667 214.536 89.2712 214.514 89.0714C214.469 88.6095 214.433 88.1387 214.42 87.6724C214.411 87.4148 214.411 87.1572 214.402 86.8996C214.402 86.8418 214.402 86.7796 214.411 86.7175C214.425 86.5887 214.491 86.491 214.562 86.4821C214.562 86.4821 214.571 86.4821 214.576 86.4821C214.656 86.4821 214.727 86.5931 214.74 86.7397C214.74 86.7796 214.745 86.8241 214.749 86.8596C214.749 86.944 214.754 87.0328 214.758 87.1305C214.807 87.0195 214.834 86.9262 214.874 86.8418L214.86 86.8374ZM215.403 87.0639C215.376 86.9839 215.349 86.9484 215.318 86.9529C215.296 86.9529 215.274 86.9795 215.247 87.0195C215.185 87.1083 215.136 87.2105 215.096 87.3348C214.994 87.6324 214.918 87.9433 214.891 88.2897C214.891 88.3164 214.891 88.3386 214.891 88.3519C214.891 88.383 214.9 88.3963 214.927 88.3919C214.936 88.3919 214.945 88.383 214.954 88.383C215.118 88.3208 215.256 88.1742 215.363 87.9433C215.438 87.7789 215.465 87.5969 215.465 87.4148C215.461 87.3037 215.434 87.1394 215.407 87.0639H215.403Z" fill="white"/>
<path d="M216.501 88.5473C216.523 88.6628 216.541 88.6983 216.594 88.685C216.608 88.6806 216.626 88.6717 216.643 88.6584C216.679 88.6362 216.71 88.6051 216.737 88.5651C216.763 88.5251 216.79 88.5074 216.817 88.4985C216.875 88.4807 216.923 88.5207 216.955 88.5829C216.972 88.6184 216.981 88.6673 216.981 88.7161C216.981 88.8094 216.963 88.9115 216.915 88.987C216.843 89.1025 216.759 89.1736 216.67 89.2224C216.648 89.2358 216.621 89.2491 216.594 89.258C216.568 89.2668 216.546 89.2713 216.519 89.2757C216.394 89.2802 216.292 89.1958 216.23 89.0137C216.163 88.8227 216.136 88.6051 216.123 88.3786C216.119 88.2853 216.114 88.192 216.11 88.0943C216.101 87.89 216.101 87.6813 216.101 87.4681C216.101 87.4548 216.101 87.4503 216.101 87.437C216.101 87.4192 216.101 87.4059 216.101 87.3881C216.101 87.3526 216.092 87.3393 216.061 87.3393C216.003 87.3437 215.954 87.3082 215.923 87.2194C215.914 87.1883 215.905 87.1528 215.905 87.1128C215.905 87.0195 215.932 86.9218 215.981 86.8641C216.003 86.8374 216.034 86.8197 216.061 86.8019C216.119 86.7619 216.123 86.7486 216.123 86.6376C216.123 86.5843 216.123 86.531 216.128 86.4777C216.145 86.34 216.203 86.2467 216.27 86.2334C216.274 86.2334 216.283 86.2334 216.292 86.2334C216.368 86.2467 216.425 86.3578 216.434 86.4954C216.434 86.4999 216.434 86.5043 216.434 86.5088C216.434 86.5176 216.434 86.5221 216.434 86.531C216.434 86.5399 216.434 86.5487 216.434 86.5576C216.434 86.6065 216.443 86.6109 216.479 86.6065C216.497 86.6065 216.514 86.5976 216.532 86.5976C216.568 86.5887 216.603 86.5843 216.634 86.5665C216.657 86.5532 216.674 86.5487 216.697 86.5443C216.732 86.5354 216.768 86.5443 216.799 86.5443C216.879 86.5576 216.937 86.6598 216.941 86.7841C216.941 86.793 216.941 86.8063 216.941 86.8152C216.932 86.9618 216.87 87.0728 216.786 87.095C216.781 87.095 216.772 87.095 216.768 87.095C216.723 87.095 216.679 87.1083 216.63 87.1172C216.586 87.1261 216.537 87.1439 216.492 87.1661C216.443 87.1838 216.434 87.2061 216.439 87.2904C216.448 87.5392 216.448 87.7923 216.452 88.041C216.452 88.0588 216.452 88.0766 216.452 88.0943C216.457 88.2498 216.474 88.4052 216.501 88.5518V88.5473Z" fill="white"/>
<path d="M217.87 88.2987C217.781 88.4763 217.684 88.6318 217.564 88.7384C217.528 88.7695 217.488 88.8006 217.448 88.8183C217.399 88.8405 217.35 88.8494 217.306 88.8405C217.137 88.8094 217.03 88.5785 217.017 88.2987C217.017 88.1921 217.025 88.0766 217.048 87.9656C217.119 87.6192 217.252 87.3838 217.443 87.2505C217.479 87.2239 217.519 87.2061 217.555 87.1928C217.652 87.1617 217.741 87.175 217.835 87.2017C217.848 87.2061 217.861 87.215 217.87 87.2194C217.879 87.2194 217.884 87.2194 217.888 87.2194C217.897 87.2194 217.901 87.2017 217.901 87.1839C217.901 87.1839 217.901 87.175 217.901 87.1706C217.901 87.1173 217.893 87.064 217.884 87.0063C217.87 86.8908 217.853 86.7709 217.821 86.6643C217.79 86.5488 217.746 86.5044 217.688 86.5221C217.67 86.5266 217.648 86.5399 217.626 86.5577C217.528 86.6332 217.448 86.7575 217.39 86.9174C217.368 86.9796 217.359 87.0507 217.346 87.1217C217.328 87.2283 217.279 87.2994 217.226 87.3172C217.217 87.3172 217.208 87.3216 217.203 87.3172C217.132 87.3172 217.083 87.2461 217.074 87.1262C217.074 87.1128 217.074 87.0995 217.074 87.0862C217.074 87.0285 217.074 86.9752 217.088 86.9219C217.106 86.8375 217.119 86.7531 217.146 86.6776C217.257 86.3578 217.403 86.1269 217.599 86.0292C217.63 86.0114 217.652 86.0025 217.684 85.9981C217.812 85.967 217.924 86.0425 218.013 86.2068C218.093 86.3445 218.124 86.5221 218.155 86.7042C218.182 86.8863 218.204 87.0684 218.208 87.2594C218.217 87.4637 218.235 87.6547 218.244 87.859C218.244 87.9212 218.257 87.9745 218.27 88.0233C218.275 88.05 218.279 88.0766 218.279 88.1033C218.279 88.1877 218.262 88.2809 218.213 88.3475C218.19 88.3786 218.173 88.4008 218.146 88.4142C218.102 88.4408 218.053 88.4275 218.021 88.3742C217.999 88.3342 217.986 88.2809 217.977 88.2232C217.977 88.1877 217.968 88.1566 217.955 88.1255C217.924 88.1832 217.901 88.241 217.87 88.2987ZM217.372 87.97C217.35 88.0367 217.341 88.0988 217.341 88.1654C217.341 88.1743 217.341 88.1877 217.341 88.1965C217.35 88.2676 217.372 88.2942 217.417 88.2854C217.421 88.2854 217.43 88.2854 217.435 88.2809C217.466 88.2676 217.497 88.241 217.523 88.2099C217.626 88.0899 217.697 87.9256 217.768 87.7568C217.777 87.7391 217.777 87.7302 217.777 87.7169C217.777 87.6991 217.768 87.6947 217.755 87.6902C217.706 87.6725 217.657 87.6725 217.604 87.6902C217.599 87.6902 217.59 87.6947 217.586 87.6991C217.497 87.7346 217.417 87.819 217.363 87.97H217.372Z" fill="white"/>
<path d="M216.674 90.626C216.91 90.5106 217.141 90.4573 217.364 90.3818C217.51 90.3329 217.657 90.2752 217.795 90.1908C217.928 90.1108 218.057 89.9909 218.186 89.8888C218.208 89.871 218.231 89.8488 218.253 89.8355C218.284 89.8133 218.288 89.8266 218.284 89.8799C218.271 90.0309 218.235 90.1819 218.186 90.3329C217.955 91.0613 217.635 91.6786 217.195 92.0739C216.95 92.2915 216.701 92.4026 216.443 92.4514C216.19 92.5047 215.932 92.5136 215.67 92.5269C215.567 92.5314 215.461 92.5269 215.354 92.6158C215.345 92.6202 215.327 92.598 215.327 92.5847C215.327 92.5491 215.327 92.5092 215.332 92.4736C215.349 92.3848 215.372 92.296 215.398 92.2116C215.661 91.4432 216.03 90.9547 216.492 90.7104C216.554 90.6793 216.617 90.6527 216.679 90.626H216.674Z" fill="#92CE29"/>
<path d="M214.798 93.6505C214.794 93.6238 214.785 93.5972 214.78 93.5705C214.78 93.5572 214.785 93.5395 214.789 93.5217C214.896 93.1975 215.02 92.8821 215.185 92.6334C215.638 91.9495 216.141 91.5453 216.666 91.3277C216.826 91.261 216.986 91.1989 217.141 91.1367C217.488 90.9901 217.799 90.6881 218.066 90.2173C218.128 90.1063 218.182 89.9775 218.239 89.862C218.257 89.8265 218.271 89.7909 218.288 89.751C218.288 89.751 218.297 89.751 218.302 89.7554C218.297 89.7776 218.293 89.8043 218.284 89.8265C218.199 90.0974 218.075 90.315 217.942 90.5193C217.688 90.9013 217.404 91.15 217.101 91.301C216.83 91.4387 216.545 91.5453 216.261 91.7363C215.852 92.0116 215.465 92.3847 215.136 92.9621C215.038 93.1308 214.958 93.3352 214.874 93.5172C214.851 93.5617 214.829 93.6061 214.807 93.6505C214.807 93.6505 214.803 93.6505 214.798 93.6505Z" fill="#348419"/>
<path d="M210.37 91.3233C210.121 91.2611 209.881 91.2611 209.645 91.2389C209.489 91.2211 209.338 91.2034 209.187 91.1501C209.045 91.0968 208.898 91.008 208.76 90.928C208.738 90.9147 208.711 90.8969 208.689 90.888C208.658 90.8747 208.653 90.8881 208.662 90.9458C208.689 91.1146 208.738 91.2744 208.8 91.4299C209.098 92.1805 209.476 92.7579 209.956 93.0377C210.223 93.1931 210.485 93.2286 210.748 93.2064C211.01 93.1842 211.268 93.1221 211.535 93.0643C211.641 93.0421 211.748 93.011 211.859 93.0643C211.868 93.0643 211.886 93.0377 211.886 93.0243C211.886 92.9888 211.886 92.9444 211.872 92.9133C211.846 92.8289 211.819 92.7401 211.784 92.6602C211.459 91.9362 211.05 91.5143 210.565 91.3677C210.499 91.35 210.432 91.3366 210.37 91.3233Z" fill="#92CE29"/>
<path d="M212.5 93.9745C212.5 93.9434 212.508 93.9168 212.513 93.8857C212.513 93.8723 212.504 93.8546 212.5 93.8413C212.366 93.5392 212.219 93.255 212.033 93.0374C211.526 92.4555 210.988 92.158 210.441 92.0647C210.272 92.0381 210.103 92.0159 209.939 91.9892C209.574 91.9315 209.232 91.6961 208.916 91.2519C208.84 91.1498 208.778 91.021 208.707 90.9011C208.685 90.8655 208.667 90.83 208.649 90.79C208.649 90.79 208.64 90.7945 208.636 90.7989C208.645 90.8256 208.649 90.8522 208.658 90.8744C208.769 91.1542 208.911 91.3585 209.067 91.5451C209.36 91.8959 209.672 92.0736 209.992 92.1491C210.281 92.2202 210.574 92.2557 210.877 92.38C211.312 92.5577 211.73 92.8508 212.104 93.3483C212.215 93.4948 212.308 93.6814 212.411 93.8457C212.437 93.8857 212.464 93.9256 212.491 93.9612C212.491 93.9612 212.495 93.9612 212.5 93.9612V93.9745Z" fill="#348419"/>
<path d="M213.841 92.0872C213.89 92.0206 213.935 91.9539 213.979 91.9051C214.086 91.7941 214.184 91.8385 214.242 92.0206C214.295 92.1938 214.304 92.3803 214.264 92.5669C214.188 92.9222 214.073 93.2375 213.895 93.4684C213.708 93.7083 213.512 93.7305 213.33 93.4907C213.135 93.2331 212.983 92.9 212.917 92.478C212.908 92.4203 212.903 92.3581 212.903 92.3004C212.903 92.065 213.032 91.914 213.161 91.9939C213.219 92.0295 213.277 92.0872 213.339 92.1405C213.339 92.0961 213.339 92.0517 213.339 92.0072C213.339 91.7852 213.375 91.5898 213.477 91.4432C213.592 91.2833 213.699 91.3055 213.766 91.5276C213.806 91.6608 213.819 91.8163 213.846 91.9628C213.85 91.9984 213.846 92.0428 213.85 92.0872H213.841Z" fill="#F99900"/>
<path d="M318.854 243.52C318.854 243.52 313.23 246.62 307.129 243.52C307.129 243.52 300.442 203.956 300.482 194.54C300.5 190.308 299.206 179.871 297.703 169.229C295.645 154.675 293.199 139.734 293.199 139.734L319.259 138.108C319.259 138.108 317.111 174.061 318.868 194.54C320.628 215.019 318.854 243.52 318.854 243.52Z" fill="#1A2E35"/>
<path d="M291.91 71.6257C291.91 71.6257 283.777 71.2171 283.551 66.5315C283.324 61.8459 276.605 58.426 278.553 54.6642C280.936 50.0496 278.762 45.6127 281.772 42.5126C285.089 39.0928 289.282 40.9493 291.492 38.9595C293.702 36.9654 297.748 35.1311 301.736 37.5916C305.724 40.0521 308.77 38.7286 311.389 41.0958C314.283 43.7162 313.19 47.0117 315.577 48.8016C317.765 50.4404 316.876 54.9262 315.03 58.5681C313.701 61.193 316.764 63.6535 311.504 66.6692C309.317 67.9261 309.788 71.0839 303.141 71.6302C300.149 71.8744 293.648 70.4754 291.905 71.6302L291.91 71.6257Z" fill="#303030"/>
<path d="M276.397 252.07C276.397 252.07 276.397 248.783 276.864 247.686C277.335 246.593 279.051 242.139 279.051 242.139H285.779C285.779 242.139 287.028 246.203 287.108 247.53C287.188 248.858 287.108 252.07 287.108 252.07H276.393H276.397Z" fill="#22373D"/>
<path d="M319.099 252.07C319.099 252.07 319.099 248.783 318.632 247.686C318.161 246.593 316.44 242.139 316.44 242.139H309.713C309.713 242.139 308.463 246.203 308.383 247.53C308.303 248.858 308.383 252.07 308.383 252.07H319.099Z" fill="#22373D"/>
<path d="M292.155 67.4688C292.155 67.4688 291.919 74.7926 290.981 78.0748L283.556 83.249L311.514 87.4283L304.845 78.2258C304.845 78.2258 302.83 68.4059 303.889 64.7729C304.947 61.1399 292.159 67.4688 292.159 67.4688H292.155Z" fill="#B56F40"/>
<path d="M292.114 68.4814C292.114 68.4814 294.324 73.7977 298.49 73.6823C302.656 73.5668 303.604 68.8634 303.604 68.8634L292.114 68.4859V68.4814Z" fill="#99592E"/>
<path d="M298.01 71.6259C294.991 71.5726 289.438 67.5576 289.438 62.5877V54.8331C289.438 53.0166 290.705 51.5332 292.252 51.5332H303.763C305.311 51.5332 306.578 53.0166 306.578 54.8331V62.1481C306.578 67.3578 301.469 71.6837 298.006 71.6215L298.01 71.6259Z" fill="#B56F40"/>
<path d="M277.241 136.852C277.241 136.852 278.42 172.742 276.659 193.221C274.898 213.7 276.672 242.201 276.672 242.201C276.672 242.201 282.301 245.301 288.397 242.201C288.397 242.201 295.089 202.637 295.044 193.221C295.027 188.873 295.569 177.845 297.943 167.062C300.531 155.323 304.924 138.415 304.924 138.415L277.241 136.852Z" fill="#22373D"/>
<path d="M314.346 79.9622V79.98C310.962 79.1317 307.783 78.5676 304.84 78.2301C302.243 81.6722 300.38 82.4716 298.01 83.4087C294.195 82.8802 290.976 78.1857 290.976 78.0791C286.819 78.5055 284.013 79.2649 282.871 79.6203C282.644 79.6469 270.448 81.2547 253.183 116.359C253.183 116.359 254.112 119.592 258.638 125.229C261.862 129.235 266.904 134.462 274.734 140.605C274.734 140.605 275.472 139.028 276.148 136.474C276.148 136.474 271.497 127.431 268.696 121.307C267.335 118.327 266.41 116.039 266.677 115.817C267.18 115.4 272.809 110.519 276.966 106.912C276.935 107.814 276.921 108.631 276.944 109.346C277.17 117.19 277.486 124.807 276.472 133.25C275.143 144.34 277.393 144.144 277.393 144.144C277.393 144.144 280.425 144.735 284.654 145.299C288.477 145.81 293.279 146.294 297.699 146.294C307.832 146.294 318.943 144.144 318.943 144.144C322.14 144.184 318.045 124.269 317.449 112.286C317.312 109.502 317.183 106.966 317.063 104.643C320.882 107.956 329.343 115.298 329.966 115.817C330.233 116.039 329.308 118.327 327.947 121.307C325.146 127.431 320.495 136.474 320.495 136.474C321.167 139.028 321.909 140.605 321.909 140.605C329.735 134.462 334.781 129.235 338.005 125.229C342.531 119.592 343.46 116.359 343.46 116.359C326.035 80.926 314.346 79.9667 314.346 79.9667V79.9622Z" fill="#D1E4DF"/>
<path d="M282.844 127.183C284.258 133.494 282.128 140.929 280.701 144.855C276.472 144.295 277.397 144.14 277.397 144.14C277.397 144.14 275.143 144.335 276.477 133.245C277.486 124.802 277.17 117.185 276.948 109.342C276.921 108.471 276.939 107.441 276.997 106.291" fill="#BBD5CE"/>
<path d="M275.223 136.918C275.223 136.918 279.447 133.014 281.168 135.2C282.888 137.389 283.2 140.822 281.87 140.591C280.541 140.356 277.802 139.108 277.41 139.734C277.019 140.361 275.267 141.555 274.734 140.605C274.2 139.654 275.218 136.923 275.218 136.923L275.223 136.918Z" fill="#B56F40"/>
<path d="M276.152 136.469C275.481 139.023 274.738 140.6 274.738 140.6C266.913 134.458 261.866 129.23 258.643 125.224C261.07 125.042 264.614 124.176 268.696 121.302C271.497 127.427 276.148 136.469 276.148 136.469H276.152Z" fill="#B56F40"/>
<path d="M321.424 136.918C321.424 136.918 317.2 133.014 315.48 135.2C313.759 137.389 313.448 140.822 314.777 140.591C316.107 140.356 318.846 139.108 319.237 139.734C319.628 140.361 321.38 141.555 321.913 140.605C322.447 139.654 321.429 136.923 321.429 136.923L321.424 136.918Z" fill="#B56F40"/>
<path d="M320.495 136.469C321.167 139.023 321.909 140.6 321.909 140.6C329.735 134.458 334.781 129.23 338.005 125.224C335.577 125.042 332.033 124.176 327.952 121.302C325.15 127.427 320.5 136.469 320.5 136.469H320.495Z" fill="#B56F40"/>
<path d="M329.97 115.813C329.343 115.293 320.824 107.898 317.022 104.603C317.022 104.603 320.815 101.76 323.163 105.904C325.51 110.043 329.97 115.813 329.97 115.813Z" fill="#BBD5CE"/>
<path d="M289.442 57.9822C289.442 57.9822 291.536 51.5955 298.397 52.5904C305.258 53.5852 305.853 55.0509 306.583 56.7519C307.312 58.453 308.721 50.5429 308.721 50.5429L300.629 48.1401C300.629 48.1401 290.834 49.2549 290.131 50.8938L289.429 52.5326L289.446 57.9822H289.442Z" fill="#303030"/>
<path d="M293.813 62.7429C292.63 62.7429 290.26 62.4809 289.843 60.4245C289.718 59.8027 289.834 59.2476 290.18 58.8256C290.563 58.3593 291.194 58.0884 291.914 58.0884H295.556C296.25 58.0884 296.734 58.2882 296.992 58.6791C297.432 59.3408 297.094 60.3313 296.93 60.7265C296.365 62.0812 295.583 62.7118 294.476 62.7118C294.427 62.7163 294.178 62.7429 293.809 62.7429H293.813ZM291.919 58.3282C291.274 58.3282 290.71 58.5636 290.372 58.9767C290.069 59.3453 289.971 59.8294 290.083 60.3801C290.296 61.4372 291.087 62.1078 292.439 62.3832C293.471 62.5919 294.449 62.4764 294.462 62.4764H294.476C295.48 62.4764 296.192 61.8902 296.717 60.6333C296.832 60.3535 297.188 59.3897 296.801 58.8123C296.588 58.4925 296.17 58.3282 295.565 58.3282H291.923H291.919Z" fill="#2C3A64"/>
<path d="M302.212 62.7429C301.848 62.7429 301.594 62.7163 301.545 62.7118C300.438 62.7118 299.656 62.0767 299.091 60.7265C298.927 60.3313 298.589 59.3408 299.029 58.6791C299.291 58.2882 299.776 58.0884 300.465 58.0884H304.106C304.827 58.0884 305.458 58.3549 305.841 58.8256C306.187 59.252 306.307 59.8027 306.178 60.4245C305.765 62.4809 303.395 62.7429 302.208 62.7429H302.212ZM300.465 58.3282C299.856 58.3282 299.442 58.4925 299.224 58.8123C298.838 59.3941 299.193 60.3535 299.309 60.6333C299.834 61.8902 300.545 62.472 301.55 62.472H301.563C301.563 62.472 302.555 62.5875 303.582 62.3787C304.934 62.1034 305.729 61.4283 305.938 60.3757C306.05 59.825 305.947 59.3408 305.649 58.9722C305.311 58.5592 304.747 58.3238 304.102 58.3238H300.461L300.465 58.3282Z" fill="#2C3A64"/>
<path d="M296.707 59.7718C296.654 59.7718 296.601 59.7407 296.578 59.6874C296.547 59.6164 296.578 59.532 296.65 59.4964C296.712 59.4698 298.139 58.8302 299.402 59.4964C299.473 59.532 299.5 59.6208 299.46 59.6919C299.424 59.7629 299.335 59.7896 299.264 59.7496C298.121 59.1456 296.779 59.7496 296.765 59.7496C296.747 59.7585 296.725 59.7629 296.707 59.7629V59.7718Z" fill="#2C3A64"/>
<path d="M265.232 249.364C265.232 249.364 266.246 251.341 268.492 251.829C269.905 252.136 271.115 252.873 271.871 253.904C272.507 254.774 271.893 256 270.813 256H259.417C258.447 256 257.687 255.165 257.785 254.197C257.869 253.353 257.958 252.371 257.998 251.616C258.083 249.973 259.732 248.649 259.732 248.649L265.237 249.36L265.232 249.364Z" fill="#2C3A64"/>
<path d="M267.815 220.656C268.291 229.312 267.108 248.987 267.108 248.987C267.108 248.987 266.312 251.181 261.297 251.705C258.607 251.985 256.188 251.288 256.188 251.288C255.174 246.629 254.241 242.178 253.378 237.95C247.184 207.589 244.766 188.838 244.766 188.838L269.22 183.162C269.22 183.162 268.149 200.301 267.833 211.99C267.735 215.637 267.709 218.755 267.815 220.656Z" fill="#1E3D70"/>
<path d="M269.22 183.162C269.22 183.162 268.149 200.301 267.833 211.99L253.378 237.955C247.184 207.594 244.766 188.842 244.766 188.842L269.22 183.166V183.162Z" fill="#2C3A64"/>
<path d="M244.632 143.909C244.632 143.909 235.171 139.605 228.012 143.372C220.853 147.134 225.229 178.201 235.468 181.212C235.468 181.212 254.645 187.337 244.637 143.909H244.632Z" fill="#35488B"/>
<path d="M272.004 190.406C271.977 190.361 271.946 190.321 271.91 190.286C271.519 189.69 270.665 187.559 270.665 187.559L269.131 189.566C269.091 189.611 268.487 189.135 268.451 189.189L268.602 194.385L270.127 194.025C270.194 194.007 270.256 193.985 270.319 193.959C270.505 193.874 270.67 193.737 270.785 193.55L272.017 191.6C272.253 191.223 272.231 190.756 271.999 190.41L272.004 190.406Z" fill="#B56F40"/>
<path d="M264.952 139.081C264.952 139.081 267.967 139.09 269.767 143.318C273.498 152.09 271.879 171.019 271.653 173.733C271.653 173.733 272.933 179.115 271.03 188.425L268.549 189.895C268.549 189.895 264.73 153.116 265.197 149.478C265.664 145.845 264.957 139.081 264.957 139.081H264.952Z" fill="#B56F40"/>
<path d="M245.393 249.364C245.393 249.364 246.406 251.341 248.652 251.829C250.066 252.136 251.275 252.873 252.031 253.904C252.667 254.774 252.053 256 250.973 256H239.577C238.608 256 237.847 255.165 237.945 254.197C238.029 253.353 238.118 252.371 238.158 251.616C238.243 249.973 239.892 248.649 239.892 248.649L245.397 249.36L245.393 249.364Z" fill="#2C3A64"/>
<path d="M253.321 104.385C250.884 104.385 247.821 105.433 246.18 107.028C244.437 108.72 242.619 108.809 241.325 110.807C239.977 112.89 239.142 115.058 239.817 117.994C240.555 121.196 240.409 124.296 242.423 126.65C243.419 127.813 245.046 127.947 246.18 129.017C248.261 130.98 250.626 131.602 253.321 131.602C258.407 131.602 261.569 128.591 264.174 124.842C266.26 121.84 265.846 119.815 266.335 117.243C267.874 109.155 261.12 104.385 253.321 104.385Z" fill="#303030"/>
<path d="M260.48 136.989L250.76 141.95L248.812 135.213C248.812 135.213 250.053 132.881 250.609 129.061C250.844 127.454 250.96 125.588 250.809 123.519L258.728 127.569C258.728 127.569 258.541 128.302 258.412 129.381C258.279 130.549 258.216 132.121 258.55 133.614C258.834 134.897 259.412 136.123 260.475 136.989H260.48Z" fill="#B56F40"/>
<path d="M237.958 185.8C237.958 185.8 236.109 210.268 236.522 249.267C236.522 249.267 238.75 250.44 241.44 250.706C246.46 251.204 247.682 249.218 247.682 249.218C247.682 249.218 252.818 230.187 254.103 221.611C255.286 213.705 263.058 185.174 263.058 185.174L237.958 185.805V185.8Z" fill="#2A4E96"/>
<path d="M266.904 137.665C266.042 137.26 263.329 136.177 259.248 135.506C259.292 136.901 258.919 138.206 256.464 138.526C253.201 138.953 250.284 136.727 248.808 135.213C248.808 135.213 246.509 135.457 243.823 136.048C242.481 136.341 241.044 136.723 239.751 137.198C238.185 137.776 236.829 138.491 236.109 139.374C233.597 142.452 229.471 151.721 229.471 151.721C229.471 151.721 236.345 154.266 238.079 155.754L238.119 156.083L239.195 165.01L235.989 182.789C235.962 182.944 235.945 183.1 235.945 183.255C235.945 184.445 236.758 185.511 237.954 185.8C237.954 185.8 238.23 185.844 238.737 185.915C242.134 186.391 255.926 188.034 266.74 185.103C269.172 184.445 270.772 182.127 270.572 179.613L268.807 157.517C269.75 157.358 270.835 157.184 271.715 157.087C272.449 157.007 273.04 156.98 273.285 157.051C273.285 157.051 272.062 139.796 266.9 137.665H266.904Z" fill="#EAC00F"/>
<path d="M246.5 170.459C246.362 176.664 242.294 183.952 238.741 185.915C238.235 185.844 237.959 185.8 237.959 185.8C236.763 185.511 235.949 184.445 235.949 183.255C235.949 183.104 235.963 182.948 235.994 182.788L239.199 165.01L238.123 156.083C238.177 155.927 238.203 155.843 238.203 155.843C238.203 155.843 246.745 159.494 246.505 170.455L246.5 170.459Z" fill="#CEA90D"/>
<path d="M271.719 157.087C270.812 157.189 268.802 157.518 268.802 157.518L267.784 148.262C267.784 148.262 271.186 154.786 271.719 157.087Z" fill="#CEA90D"/>
<path d="M236.562 179.613L237.394 174.994C251.488 154.622 252.555 150.971 246.215 141.822C244.401 139.201 241.097 137.567 239.75 137.194C241.044 136.714 242.48 136.337 243.823 136.043C245.161 136.67 246.393 137.287 247.344 138.113C266.69 154.844 236.558 179.609 236.558 179.609L236.562 179.613Z" fill="#35488B"/>
<path d="M244.872 160.289C245.223 160.262 246.744 159.503 246.744 159.503C246.744 159.503 247.509 153.853 253.027 153.471C253.027 153.471 255.325 153.485 254.854 155.052C254.383 156.62 254.334 155.941 253.716 158.166C253.102 160.391 251.497 162.087 249.79 162.19L248.042 162.66C248.042 162.66 243.952 160.355 244.872 160.289Z" fill="#B56F40"/>
<path d="M246.744 159.502C246.744 159.502 237.483 160.342 236.113 160.95C236.113 160.95 236.865 158.921 238.203 155.852C236.994 154.666 233.028 152.903 230.4 152.09C228.395 157.197 227.625 162.252 228.75 167.128C228.87 167.643 229.324 168.012 229.848 168.034C232.814 168.172 242.645 168.123 249.786 162.127L246.744 159.502Z" fill="#B56F40"/>
<path d="M258.554 133.614C254.05 133.494 250.613 129.062 250.613 129.062L258.421 129.377C258.288 130.545 258.225 132.117 258.559 133.609L258.554 133.614Z" fill="#99592E"/>
<path d="M258.981 130.896C258.981 130.896 249.03 132.108 248.817 125.104C248.603 118.1 252.751 113.565 255.522 113.619C261.044 113.721 261.951 115.95 262.591 118.269C263.231 120.587 263.56 130.403 258.981 130.896Z" fill="#B56F40"/>
<path d="M257.985 113.685C257.985 113.685 249.479 113.681 251.436 119.512C252.667 123.19 248.572 123.758 248.572 123.758L246.603 117.869L247.839 113.281L257.99 113.69L257.985 113.685Z" fill="#303030"/>
<path d="M338.787 129.941C329.152 127.489 318.557 112.557 318.557 112.557L321.269 110.208C324.079 113.517 335.759 119.215 335.759 119.215C335.697 116.186 335.777 113.428 335.968 110.914C337.267 93.8325 343.709 88.1432 345.47 86.8951C345.755 86.6908 345.919 86.6064 345.919 86.6064C345.919 86.6064 345.924 86.7308 345.937 86.9662C345.964 87.4725 346.008 88.4985 346.057 89.8975C346.413 100.352 346.84 131.993 338.787 129.941Z" fill="#D9935C"/>
<path d="M321.269 110.208C321.229 109.804 320.958 103.937 319.789 102.817C318.624 101.698 316.316 100.179 315.654 100.304C314.991 100.428 312.741 104.163 313.804 106.739C314.867 109.311 318.553 112.562 318.553 112.562L321.265 110.212L321.269 110.208Z" fill="#D9935C"/>
<path d="M323.666 110.892L317.321 111.158C317.112 111.167 316.934 111.003 316.925 110.794L316.418 98.7046C316.409 98.4958 316.574 98.3182 316.783 98.3093L323.128 98.0428C323.337 98.0339 323.515 98.1983 323.523 98.407L324.03 110.492C324.039 110.701 323.875 110.878 323.666 110.887V110.892Z" fill="#F1A34F"/>
<path d="M322.016 110.959L316.258 111.198C315.884 111.216 315.569 110.923 315.555 110.55L315.075 99.0513C315.057 98.6782 315.351 98.3629 315.724 98.3451L321.482 98.1053C321.856 98.0875 322.171 98.3806 322.185 98.7537L322.665 110.252C322.678 110.625 322.389 110.941 322.016 110.954V110.959Z" fill="#D86713"/>
<path d="M315.178 100.752C315.178 100.752 316.907 98.8246 318.637 100.299C320.367 101.774 318.521 104.923 317.023 105.784C315.52 106.646 315.04 107.094 315.04 107.094L315.178 100.757V100.752Z" fill="#D9935C"/>
<path d="M359.77 229.25C359.183 231.581 358.538 233.802 357.88 235.867C357.738 236.311 357.6 236.747 357.458 237.173C357.387 237.386 357.316 237.595 357.249 237.799C357.111 238.208 356.973 238.608 356.835 239.003C356.658 239.514 356.48 240.011 356.306 240.495C356.177 240.855 356.048 241.201 355.919 241.548C353.968 246.784 352.327 250.102 352.327 250.102L348.432 249.835C348.432 249.835 349.895 242.889 350.188 232.94C350.197 232.585 350.206 232.225 350.215 231.866C350.228 231.093 350.237 230.307 350.237 229.507C350.237 229.179 350.237 228.845 350.233 228.508C350.153 219.941 349.094 209.814 345.702 200.145C342.945 192.284 340.949 184.929 339.504 178.285C334.84 156.829 335.938 142.732 335.938 142.732L357.84 145.29L358.863 145.41C358.956 155.461 359.214 169.1 359.441 179.768C359.481 181.62 359.516 183.384 359.552 185.018C359.703 191.867 359.819 196.548 359.819 196.548C364.029 205.608 362.5 218.395 359.77 229.254V229.25Z" fill="#CB7D45"/>
<path d="M353.495 67.6022C353.495 67.6022 358.675 72.008 353.927 77.08C353.927 77.08 357.884 77.4664 359.227 76.3739C359.227 76.3739 358.964 76.9068 358.72 77.1466C358.72 77.1466 363.144 77.3065 364.971 75.9253C366.799 74.5485 365.625 51.9242 353.34 54.4557C353.34 54.4557 342.927 53.6696 343.896 65.7057C344.865 77.7418 340.935 77.7418 340.935 77.7418C340.935 77.7418 342.028 78.2792 342.557 78.2792C342.557 78.2792 343.327 77.9861 343.482 77.5597C343.482 77.5597 343.331 78.2303 343.131 78.4435C343.131 78.4435 347.373 78.8432 349.494 77.2444C351.615 75.6455 354.1 70.0849 353.495 67.6022Z" fill="#233862"/>
<path d="M370.218 140.267C366.079 130.993 364.1 128.373 364.029 125.455C363.976 123.15 365.114 120.658 367.324 114.556C367.844 113.117 368.204 111.638 368.427 110.141C370.178 98.3715 363.362 85.6514 359.129 84.7853C357.951 84.4744 355.955 80.2241 355.977 73.3755L355.448 73.4776L346.533 75.2409C346.533 75.2409 346.738 78.0434 346.742 80.686C346.746 82.8844 346.631 85.1273 346.128 85.3894C345.488 85.4471 344.901 85.5626 344.901 85.5626C344.901 85.5626 337.356 90.8567 336.867 98.0339C336.218 107.623 342.985 118.993 336.982 138.162C330.855 157.739 372.499 145.392 370.214 140.267H370.218Z" fill="#D9935C"/>
<path d="M346.533 75.2412C346.533 75.2412 346.738 78.0437 346.742 80.6864C351.731 80.5442 354.368 76.0007 355.448 73.478L346.533 75.2412Z" fill="#CB7D45"/>
<path d="M356.372 72.5095C356.372 72.5095 358.987 68.3834 359.614 64.8526C360.063 62.3343 358.778 52.9941 349.383 54.3399C349.383 54.3399 346.653 54.6063 344.092 56.3385C342.051 57.7153 339.107 60.6866 342.398 68.832L343.251 71.5857L356.368 72.505L356.372 72.5095Z" fill="#233862"/>
<path d="M344.87 77.7417C344.87 77.7417 356.675 77.9371 356.684 70.5911C356.693 63.2451 358.222 58.324 350.686 57.8888C343.149 57.4535 341.682 60.256 341.082 62.7077C340.482 65.1593 341.802 77.5018 344.87 77.7417Z" fill="#D9935C"/>
<path d="M345.306 57.711C345.306 57.711 348.538 66.3272 353.496 67.6019C358.458 68.8766 360.61 67.5486 360.61 67.5486C360.61 67.5486 356.804 64.5285 356.017 59.261C356.017 59.261 347.747 53.6116 345.306 57.711Z" fill="#233862"/>
<path d="M346.106 58.4084C346.106 58.4084 343.692 60.3315 343.105 62.2013C342.518 64.0711 342.251 67.9218 341.127 67.793C341.127 67.793 338.69 61.9348 341.429 58.6216C344.332 55.1085 346.106 58.4084 346.106 58.4084Z" fill="#233862"/>
<path d="M385.571 150.118L382.027 151.179C382.027 151.179 370.338 131.806 369.275 126.765C368.929 125.122 368.079 121.84 367.088 118.158C365.034 110.537 362.388 101.214 362.388 101.214L361.517 97.4389L358.542 84.5679C358.542 84.5679 364.242 85.1497 367.572 86.5398C368.675 87.0017 369.52 87.548 369.813 88.192C372.263 93.5705 374.704 107.143 376.425 116.821C377.381 122.217 378.115 126.405 378.493 127.294C379.555 129.768 382.805 143.394 385.58 150.118H385.571Z" fill="#D9935C"/>
<path d="M345.657 58.7015C345.657 58.7015 347.96 67.7263 354.221 70.6176C354.221 70.6176 347.96 65.0748 347.431 59.1145C346.898 53.1586 345.662 58.7015 345.662 58.7015H345.657Z" fill="#233862"/>
<path d="M385.318 149.527C385.318 149.527 386.394 152.063 387.519 152.77C388.64 153.476 389.707 155.177 389.938 156.545C390.365 159.054 388.439 160.613 387.021 160.613C385.603 160.613 384.251 158.681 383.415 154.075C383.371 153.822 382.023 151.18 382.023 151.18L385.314 149.527H385.318Z" fill="#D9935C"/>
<path d="M372.331 227.366C371.072 240.793 365.528 249.475 365.528 249.475L363.634 251.194C363.634 251.194 361.908 241.366 360.663 230.111C359.476 219.416 357.849 208.095 356.008 204.64C353.256 199.479 351.228 188.922 349.77 177.765C347.356 159.307 346.502 139.214 346.502 139.214L368.711 138.113C370.948 141.861 371.917 148.017 372.148 155.012C372.393 162.367 371.81 170.655 371.01 178.058C369.885 188.425 368.324 197.067 367.96 199.008C367.96 199.008 367.96 199.013 367.96 199.017C367.911 199.27 367.986 199.528 368.107 199.759C372.526 208.495 373.166 218.493 372.335 227.362L372.331 227.366Z" fill="#D9935C"/>
<path d="M346.417 109.439C345.919 121.626 344.092 133.689 338.783 132.916C332.274 131.966 330.575 125.899 330.233 121.387C330.019 118.58 330.326 116.372 330.326 116.372C330.326 116.372 333.532 116.359 334.048 115.879C336.506 113.61 335.777 91.3408 336.996 89.0269C338.214 86.7129 346.119 85.2295 346.119 85.2295C346.119 85.2295 346.915 97.3944 346.417 109.439Z" fill="#EAC00F"/>
<path d="M346.417 109.44C345.919 121.627 344.092 133.69 338.783 132.917C332.273 131.966 330.575 125.899 330.232 121.387C331.829 121.307 334.643 120.916 335.764 119.215C337.364 116.777 342.357 101.081 342.357 101.081C342.357 101.081 344.323 104.603 346.417 109.444V109.44Z" fill="#CEA90D"/>
<path d="M359.769 229.25C359.182 231.582 358.538 233.802 357.88 235.867C357.737 236.312 357.599 236.747 357.457 237.173C357.386 237.386 357.315 237.595 357.248 237.799C357.11 238.208 356.972 238.608 356.835 239.003C356.657 239.514 356.479 240.011 356.306 240.495C356.177 240.855 356.048 241.202 355.919 241.548C353.967 246.784 352.326 250.102 352.326 250.102L348.431 249.836C348.431 249.836 349.894 242.889 350.187 232.941C350.196 232.585 350.205 232.226 350.214 231.866C350.227 231.093 350.236 230.307 350.236 229.507C350.236 229.179 350.236 228.846 350.232 228.508C350.152 219.941 349.094 209.814 345.701 200.146C342.944 192.284 340.948 184.929 339.503 178.285C341.819 178.76 343.856 178.276 349.769 177.779C350.392 177.726 353.362 181.403 356.301 186.266C356.452 193.115 359.818 196.553 359.818 196.553C364.029 205.613 362.499 218.4 359.769 229.259V229.25Z" fill="#163560"/>
<path d="M372.33 227.367C371.072 240.793 365.527 249.476 365.527 249.476L363.633 251.195C363.633 251.195 361.908 241.366 360.663 230.111C359.476 219.417 357.848 208.096 356.008 204.64C353.255 199.479 351.228 188.922 349.77 177.766C351.815 178.614 358.769 180.821 371.01 178.059C369.885 188.425 368.324 197.068 367.959 199.009C367.959 199.009 367.959 199.013 367.959 199.018C367.91 199.271 367.986 199.528 368.106 199.759C372.526 208.495 373.166 218.493 372.335 227.362L372.33 227.367Z" fill="#1C468A"/>
<path d="M339.508 125.992C339.508 125.992 352.571 129.266 364.034 125.455C364.034 125.455 370.325 138.801 372.055 144.517C373.784 150.238 376.59 162.039 376.59 162.039C376.59 162.039 353.322 169.216 334.194 162.039C334.194 162.039 333.323 146.312 335.831 138.113C338.338 129.914 339.508 125.992 339.508 125.992Z" fill="#D1E4DF"/>
<path d="M386.861 132.108C386.861 135.168 383.735 137.051 380.378 137.966C377.154 138.846 373.717 138.837 372.641 138.117C370.787 136.878 367.768 123.079 366.883 118.877C366.723 118.118 366.634 117.669 366.634 117.669C366.634 117.669 364.224 123.412 364.149 123.949C364.113 124.189 364.087 124.522 364.064 124.815C364.042 125.166 364.024 125.459 364.024 125.459C364.024 125.459 350.948 132.05 339.503 125.997C339.503 125.997 334.848 99.1355 336.871 94.5076C337.876 92.2114 343.109 87.468 345.208 85.425C345.679 84.9631 345.63 84.0526 345.448 83.2221C345.297 82.5203 345.928 81.8985 346.626 82.0806C347.973 82.4315 350.396 82.3693 352.993 81.521C354.287 81.0991 355.621 80.4817 356.888 79.6201C357.257 79.3714 357.755 79.6024 357.813 80.042C358.009 81.6454 358.493 84.5678 359.378 84.5678C360.596 84.5589 368.911 85.5804 369.52 86.6064C369.733 86.9661 371.894 91.8472 374.62 98.3182C374.62 98.3182 374.62 98.3227 374.624 98.336C379.746 110.474 386.856 128.191 386.856 132.108H386.861Z" fill="#EAC00F"/>
<path d="M366.639 117.665C366.639 117.665 364.229 123.408 364.153 123.945C364.118 124.185 362.45 125.54 362.428 125.833C361.263 126.783 362.886 124.465 362.428 117.63C362.17 113.735 360.463 101.441 362.384 101.21C364.3 100.979 366.639 117.665 366.639 117.665Z" fill="#CEA90D"/>
<path d="M366.888 118.873C366.728 118.114 366.639 117.665 366.639 117.665C366.763 118.078 366.848 118.478 366.888 118.873Z" fill="#E58638"/>
<path d="M350.059 128.48C342.62 128.48 339.668 126.392 339.441 126.219L338.961 122.719C339.032 122.773 349.018 128.759 364.469 123.026L364.14 125.677C358.2 127.885 353.927 128.48 350.063 128.48H350.059Z" fill="#B64C41"/>
<path d="M354.567 253.357H352.082C351.25 253.224 350.632 252.984 349.783 252.873C348.485 252.705 347.889 253.233 347.769 253.357C347.751 253.375 347.746 253.384 347.746 253.384H337.191C336.924 253.007 337.182 252.127 337.431 251.483C337.6 251.044 337.965 250.71 338.418 250.582C339.539 250.257 341.744 249.969 343.767 248.143C344.905 247.117 349.258 244.368 349.258 244.368H349.28C349.374 244.368 349.832 244.506 351.81 246.176C352.833 247.037 354.58 244.959 354.58 244.959C354.58 244.959 354.909 245.23 355.154 245.736C355.35 246.136 355.492 246.682 355.381 247.357C355.225 248.308 355.732 250.071 356.137 251.266C356.381 251.99 356.59 252.5 356.59 252.5C356.59 252.5 356.71 253.095 354.572 253.362L354.567 253.357Z" fill="#CEA90D"/>
<path d="M355.15 245.732C354.558 246.149 353.304 246.971 352.473 247.077C351.353 247.224 349.254 244.364 349.254 244.364H349.276C349.37 244.364 349.827 244.501 351.806 246.171C352.829 247.033 354.576 244.954 354.576 244.954C354.576 244.954 354.905 245.225 355.15 245.732Z" fill="#BBD5CE"/>
<path d="M354.567 253.358H352.082C351.25 253.224 350.632 252.985 349.783 252.873C348.485 252.705 347.889 253.233 347.769 253.358C347.751 253.375 347.746 253.384 347.746 253.384H337.191C336.924 253.007 337.182 252.127 337.431 251.483C337.751 251.199 337.84 252.718 338.018 252.962C338.196 253.207 346.63 253.051 347.12 252.696C347.609 252.341 349.067 251.723 351.103 252.207C352.878 252.629 355.488 251.546 356.137 251.257C356.381 251.981 356.59 252.492 356.59 252.492C356.59 252.492 356.71 253.087 354.572 253.353L354.567 253.358Z" fill="#BBD5CE"/>
<path d="M367.831 253.357H365.345C364.514 253.224 363.896 252.984 363.042 252.873C361.744 252.705 361.148 253.233 361.032 253.357C361.015 253.375 361.01 253.384 361.01 253.384H350.455C350.188 253.007 350.446 252.127 350.695 251.483C350.864 251.044 351.228 250.71 351.682 250.582C352.802 250.257 355.008 249.969 357.031 248.143C358.169 247.117 362.522 244.368 362.522 244.368H362.544C362.642 244.368 363.095 244.506 365.074 246.176C366.097 247.037 367.844 244.959 367.844 244.959C367.844 244.959 368.173 245.23 368.418 245.736C368.613 246.136 368.756 246.682 368.644 247.357C368.489 248.308 368.996 250.071 369.4 251.266C369.645 251.99 369.854 252.5 369.854 252.5C369.854 252.5 369.974 253.095 367.835 253.362L367.831 253.357Z" fill="#EAC00F"/>
<path d="M368.413 245.732C367.818 246.149 366.568 246.971 365.737 247.077C364.616 247.224 362.518 244.364 362.518 244.364H362.54C362.638 244.364 363.091 244.501 365.07 246.171C366.092 247.033 367.84 244.954 367.84 244.954C367.84 244.954 368.169 245.225 368.413 245.732Z" fill="#D1E4DF"/>
<path d="M367.831 253.358H365.345C364.514 253.224 363.896 252.985 363.042 252.873C361.744 252.705 361.148 253.233 361.032 253.358C361.015 253.375 361.01 253.384 361.01 253.384H350.455C350.188 253.007 350.446 252.127 350.695 251.483C351.015 251.199 351.104 252.718 351.282 252.962C351.46 253.207 359.894 253.051 360.383 252.696C360.872 252.341 362.331 251.723 364.367 252.207C366.141 252.629 368.751 251.546 369.4 251.257C369.645 251.981 369.854 252.492 369.854 252.492C369.854 252.492 369.974 253.087 367.835 253.353L367.831 253.358Z" fill="#D1E4DF"/>
<path d="M210.058 66.1717C210.099 65.9718 210.13 65.7942 210.152 65.6299C207.066 63.8 205.688 62.4232 203.576 61.3262C203.265 62.5076 202.74 64.3196 202.406 64.9459C201.268 67.0911 206.324 74.0418 211.152 73.1002C212.535 72.8293 209.934 66.8113 210.063 66.1717H210.058Z" fill="#FFB27D"/>
<path d="M210.151 65.6301C210.28 64.7907 210.258 64.2933 210.538 62.8587C210.729 61.8905 210.925 60.9134 211.107 59.9896C211.623 57.3736 212.05 55.2329 212.05 55.2329L204.785 55.415C204.785 55.415 204.745 55.6548 204.669 56.059C204.46 57.1738 204.055 59.3412 203.575 61.322C203.513 61.5796 206.599 65.488 210.151 65.6257V65.6301Z" fill="#ED985F"/>
<path d="M209.422 42.1398C209.422 42.1398 205.945 41.74 203.771 44.547C201.592 47.3539 199.245 56.0412 204.656 60.7624C210.067 65.4835 215.412 60.1406 216.207 54.4734C216.999 48.8062 217.31 41.9355 209.427 42.1398H209.422Z" fill="#FFB27D"/>
<path d="M202.717 51.924C202.988 53.3897 202.446 54.7354 201.503 54.9264C200.56 55.1174 199.582 54.087 199.311 52.6213C199.04 51.1557 199.582 49.81 200.525 49.619C201.463 49.428 202.446 50.4584 202.717 51.924Z" fill="#FFB27D"/>
<path d="M217.804 53.9492C217.159 55.2017 216.074 55.8945 215.38 55.4992C214.691 55.104 214.651 53.7671 215.296 52.5146C215.941 51.2622 217.026 50.5693 217.719 50.9646C218.413 51.3599 218.448 52.6967 217.804 53.9492Z" fill="#FFB27D"/>
<path d="M200.445 49.4765C200.445 49.4765 201.704 49.8984 203.82 48.8236C205.879 47.7799 206.523 45.5237 208.044 43.8937C209.236 42.6191 210.685 42.6946 210.685 42.6946C210.685 42.6946 212.824 43.6717 213.108 45.4882C213.393 47.3047 212.788 49.0146 212.788 49.0146C212.788 49.0146 213.704 46.8739 213.406 45.1728C213.406 45.1728 214.954 50.84 216.581 50.5646L219.849 50.0983C219.849 50.0983 217.982 42.1705 210.93 41.411C206.746 40.9624 201.206 43.5118 200.445 49.4765Z" fill="#2C3A64"/>
<path d="M210.231 53.5405C210.672 54.0113 211.072 54.5087 211.61 54.8641L211.503 54.9662C211.196 55.2505 210.876 55.5214 210.525 55.7568C210.765 55.4059 211.036 55.0906 211.33 54.7885L211.347 54.9795C210.823 54.6375 210.463 54.109 210.236 53.5405H210.231Z" fill="#B57662"/>
<path d="M213.659 51.8882C213.552 52.5988 213.143 53.1273 212.752 53.0696C212.361 53.0119 212.13 52.3856 212.241 51.6706C212.348 50.96 212.757 50.4314 213.148 50.4892C213.539 50.5469 213.77 51.1731 213.659 51.8882Z" fill="#071128"/>
<path d="M206.537 51.4356C206.43 52.1462 206.021 52.6747 205.63 52.617C205.239 52.5592 205.008 51.933 205.119 51.2179C205.225 50.5073 205.634 49.9788 206.026 50.0365C206.417 50.0943 206.648 50.7205 206.537 51.4356Z" fill="#071128"/>
<path d="M203.984 48.8104C204.611 47.3225 207.163 46.945 207.764 48.6683C206.643 47.6334 205.123 47.9887 203.984 48.8104Z" fill="#192749"/>
<path d="M211.423 48.6952C212.223 47.2162 214.798 47.7669 214.993 49.4147C214.068 48.2999 212.703 47.9801 211.423 48.6952Z" fill="#192749"/>
<path d="M206.595 56.747C206.595 56.747 210.236 55.7033 211.321 57.2178L206.595 56.747Z" fill="#C96565"/>
<path d="M206.595 56.7471C206.595 56.7471 207.528 59.141 209.338 59.1809C211.446 59.2254 211.326 57.2179 211.326 57.2179L206.599 56.7471H206.595Z" fill="#C96565"/>
<path d="M206.595 56.7471L211.321 57.2179C211.321 57.2179 209.969 60.2424 206.595 56.7471Z" fill="white"/>
<path d="M209.058 69.6404C209.058 69.6404 209.049 69.6404 209.045 69.6404C208.996 69.6404 208.956 69.6138 208.929 69.5782C208.867 69.4939 208.893 69.3651 208.893 69.3517L208.978 69.3695C208.978 69.3695 208.969 69.3562 208.969 69.3517L209.071 69.2896C209.12 69.3695 209.196 69.5205 209.147 69.596C209.138 69.6138 209.111 69.6404 209.058 69.6404ZM209.005 69.4139C209.005 69.445 209.005 69.485 209.022 69.5072C209.022 69.5116 209.031 69.5161 209.045 69.5205C209.045 69.4983 209.027 69.4539 209.005 69.4139Z" fill="#757575"/>
<path d="M202.304 64.835C202.304 64.835 206.75 69.4273 208.973 69.3518C211.196 69.2763 210.027 66.2429 210.027 66.2429" stroke="#757575" stroke-width="0.25" stroke-linecap="round" stroke-linejoin="round"/>
<path d="M209.16 70.5288C209.454 70.5288 209.693 70.2902 209.693 69.9959C209.693 69.7015 209.454 69.4629 209.16 69.4629C208.865 69.4629 208.626 69.7015 208.626 69.9959C208.626 70.2902 208.865 70.5288 209.16 70.5288Z" fill="white"/>
<path d="M208.951 69.4938C208.676 69.6093 208.542 69.9291 208.658 70.2044C208.774 70.4798 209.094 70.613 209.369 70.4975C209.645 70.3821 209.778 70.0623 209.663 69.7869C209.547 69.5116 209.227 69.3783 208.951 69.4938ZM209.32 69.6848C209.32 69.6848 209.338 69.707 209.334 69.7203C209.334 69.7248 209.325 69.7292 209.32 69.7336C209.316 69.7159 209.303 69.7025 209.289 69.6937C209.298 69.6848 209.307 69.6803 209.32 69.6848ZM209.231 69.6759C209.231 69.6759 209.254 69.6537 209.267 69.6626C209.28 69.667 209.285 69.6803 209.285 69.6937C209.267 69.6848 209.249 69.6892 209.231 69.6937C209.231 69.6892 209.231 69.6803 209.231 69.6759ZM209.209 69.7558L209.223 69.7203C209.223 69.7203 209.258 69.6937 209.28 69.7025C209.303 69.7114 209.316 69.7381 209.307 69.7558L209.294 69.7914C209.294 69.7914 209.258 69.818 209.236 69.8091C209.214 69.8003 209.2 69.7736 209.209 69.7558ZM208.885 69.5782C208.902 69.556 208.938 69.5471 208.96 69.5649L209.165 69.7114C209.187 69.7292 209.196 69.7647 209.178 69.7869C209.165 69.8091 209.151 69.8091 209.138 69.8003L208.898 69.6537C208.876 69.6359 208.867 69.6004 208.885 69.5782ZM208.862 69.8003C208.862 69.7781 208.889 69.7603 208.911 69.7647L209.134 69.818C209.134 69.818 209.156 69.8313 209.151 69.8491C209.147 69.8713 209.12 69.8891 209.098 69.8846L208.898 69.8536C208.876 69.8536 208.858 69.8269 208.862 69.8047V69.8003ZM209.067 70.2844C209.067 70.2844 209.049 70.3021 209.036 70.2977C209.023 70.2932 209.018 70.2799 209.023 70.2666L209.16 69.8624C209.174 69.8313 209.205 69.818 209.227 69.8269C209.254 69.8358 209.263 69.8713 209.249 69.898L209.063 70.2844H209.067ZM209.512 70.0623C209.512 70.0623 209.472 70.0889 209.449 70.0712L209.285 69.9557C209.285 69.9557 209.258 69.9157 209.272 69.8935C209.28 69.8758 209.289 69.8758 209.307 69.8846L209.503 70.0001C209.503 70.0001 209.529 70.0401 209.512 70.0623ZM209.592 69.9335L209.316 69.8713C209.316 69.8713 209.289 69.8536 209.294 69.8313C209.303 69.8003 209.329 69.7825 209.36 69.7869L209.605 69.8269C209.636 69.8313 209.654 69.858 209.649 69.8891C209.645 69.9202 209.618 69.9379 209.587 69.9335H209.592Z" fill="#9AC10C"/>
</g>
<defs>
<clipPath id="clip0_420_860">
<rect width="234" height="256" fill="white" transform="translate(156)"/>
</clipPath>
</defs>
</svg>
