<svg width="1440" height="712" viewBox="0 0 1440 712" fill="none" xmlns="http://www.w3.org/2000/svg">
<path d="M-1 0H1439V712H-1V0Z" fill="#F2FCFF"/>
<g opacity="0.2">
<path opacity="0.71" d="M673.682 445.488V413.925H618.362V380H547.238V466.001H530.715V486.122H517.784V534.248H502.695V467.974H465.337V448.644H444.142V479.612L424.386 490.46V552.793H377.689V415.898H327.396V441.543H287.884L277.107 447.461V461.663H227.537L218.194 466.791V514.918H197.359V440.753H158.567V453.772H97.1407V485.133L86.0039 491.25V522.056H67.4839V446.03L42.3373 440.505V419.992H-25.1945V506.783H-31.2383V691.789H23.0319H67.4839H193.279V691.574L694.158 691.247V456.729L673.682 445.488Z" fill="#72C2DE"/>
<path opacity="0.71" d="M1429.36 445.488V413.925H1374.04V380H1302.92V466.001H1286.4V486.122H1273.46V534.248H1258.38V467.974H1221.02V448.644H1199.82V479.612L1180.07 490.46V552.793H1133.37V415.898H1083.08V441.543H1043.56L1032.79 447.461V461.663H983.218L973.875 466.791V514.918H953.04V440.753H914.247V453.772H852.821V485.133L841.685 491.25V522.056H823.165V446.03L798.018 440.505V419.992H730.486V506.783H724.442V691.789H778.712H823.165H948.96V691.574L1449.84 691.247V456.729L1429.36 445.488Z" fill="#72C2DE"/>
<path d="M656.13 468.413L645.952 479.608V513.938H635.092V419.905H586.568V638.943L571.975 622.901V496.775H464.068V528.864H407.061V629.617V673.977H356.978V542.958H342.493V491.986H312.795V576.412H299.033V592.338L281.654 562.073H251.233V452.958H192.564L187.496 458.533V491.986V529.418H170.836V429.86H120.861V446.585L111.084 457.337V626.987H99.8566V490.791H93.3375V477.648H35.7561L25.9793 488.4V503.533H-28.3445L-31.2383 696.673H149.832V696.276H333.799V696.673H407.061H512.699H699.565V468.413H656.13Z" fill="#72C2DE"/>
<path d="M1420.87 483.301L1410.69 494.496V528.826H1399.83V434.793H1351.31V653.831L1336.71 637.789V511.663H1228.81V543.752H1171.8V644.506V688.865H1121.72V557.846H1107.23V506.874H1077.54V591.3H1063.78V607.227L1046.39 576.962H1015.97V467.846H957.302L952.234 473.421V506.874V544.306H935.574V444.748H885.599V461.473L875.823 472.225V641.875H864.595V505.679H858.076V492.536H800.494L790.718 503.289V518.421H736.398L733.5 711.561H914.57V711.164H1098.54V711.561H1171.8H1277.44H1464.31V483.301H1420.87Z" fill="#72C2DE"/>
<path d="M699.267 497.346V633.443H681.71V579.282L656.84 558.178V476.242H625.381L607.093 460.724H583.682V543.281H527.354V637.008H512.724V506.035L471.756 506.159V602.247H460.785V481.829H446.883V446.448H432.984V438.379H427.131V445.207H392.749V472.519H360.562L352.513 481.829V593.558H325.081V570.899L307.892 556.312V502.933H247.905V547.003H225.958V584.245L199.62 609.075H182.795V464.699L135.974 463.83V573.074H125.003V497.966H69.4059V524.038H43.8004V648.799H32.829V594.799H-4.47966V578.037L-11.065 569.968H-31.0732L-34 712H746.89V497.346H699.267Z" fill="#59BAD8"/>
</g>
<g clip-path="url(#clip0_420_861)">
<path d="M1467 483L1316 479.946C1316.04 479.487 1316.16 479.014 1316.38 478.562C1328.01 455.1 1349.84 468.368 1349.84 468.368C1363.05 447.202 1380.44 464.456 1380.44 464.456C1380.44 464.456 1381.8 420.047 1420.74 424.273C1454.68 427.952 1451.28 473.112 1451.28 473.112C1458.52 473.771 1462.8 476.06 1465.28 478.821C1466.41 480.086 1466.94 481.549 1466.99 482.987L1467 483Z" fill="white"/>
</g>
<g clip-path="url(#clip1_420_861)">
<path d="M676 87.9999L602 86.4987C602.019 86.273 602.078 86.0408 602.188 85.8184C607.884 74.2864 618.584 80.8079 618.584 80.8079C625.059 70.4043 633.58 78.8848 633.58 78.8848C633.58 78.8848 634.246 57.0572 653.327 59.134C669.963 60.9426 668.294 83.1398 668.294 83.1398C671.847 83.4636 673.941 84.5887 675.156 85.946C675.711 86.5674 675.971 87.2869 675.997 87.9933L676 87.9999Z" fill="white"/>
</g>
<g clip-path="url(#clip2_420_861)">
<path d="M85 387L-1 385.292C-0.977357 385.035 -0.909426 384.771 -0.781113 384.518C5.83834 371.395 18.2734 378.816 18.2734 378.816C25.7986 366.978 35.7013 376.628 35.7013 376.628C35.7013 376.628 36.475 351.789 58.6505 354.153C77.9843 356.211 76.0445 381.47 76.0445 381.47C80.1732 381.838 82.6073 383.118 84.0188 384.663C84.6641 385.37 84.966 386.189 84.9962 386.993L85 387Z" fill="white"/>
</g>
<defs>
<clipPath id="clip0_420_861">
<rect width="151" height="59" fill="white" transform="translate(1316 424)"/>
</clipPath>
<clipPath id="clip1_420_861">
<rect width="74" height="29" fill="white" transform="translate(602 59)"/>
</clipPath>
<clipPath id="clip2_420_861">
<rect width="86" height="33" fill="white" transform="translate(-1 354)"/>
</clipPath>
</defs>
</svg>
